<?xml version="1.0" encoding="utf-8"?>
<!-- Generator: Adobe Illustrator 15.1.0, SVG Export Plug-In . SVG Version: 6.00 Build 0)  -->
<!DOCTYPE svg PUBLIC "-//W3C//DTD SVG 1.1//EN" "http://www.w3.org/Graphics/SVG/1.1/DTD/svg11.dtd">
<svg version="1.1" id="Ebene_1" xmlns="http://www.w3.org/2000/svg" xmlns:xlink="http://www.w3.org/1999/xlink" x="0px" y="0px"
	 width="64px" height="64px" viewBox="0 0 64 64" enable-background="new 0 0 64 64" xml:space="preserve">
<g>
	<circle fill="#E5E5E5" cx="32" cy="32" r="32"/>
	<g>
		<g>
			<rect x="30.861" y="21.013" fill="#F05722" width="24" height="28"/>
		</g>
		<g>
			<path fill="#FFFFFF" d="M38.779,27.509c2.031-1.582,4.688-2.358,7.345-2.358c1.851,0,3.192,0.18,3.94,0.448
				c0.179,2,0.328,4.03,0.447,6.09c-0.984,0.148-2.062,0.298-3.136,0.417l-0.717-3.134c-0.03-0.119-0.062-0.299-0.181-0.357
				c-0.328-0.21-0.774-0.389-1.401-0.389c-0.955,0-2,0.389-2.836,1.253c-1.312,1.374-2.03,3.344-2.03,5.852
				c0,2.565,0.538,4.237,1.73,5.313c0.896,0.834,2.3,1.224,3.492,1.224c1.344,0,3.644-0.448,4.627-0.836
				c0.238,0.866,0.418,1.97,0.537,2.776c-1.91,0.743-4.687,1.342-6.209,1.342c-2.299,0-4.627-0.508-6.356-1.762
				c-1.882-1.373-3.373-3.938-3.373-7.074C34.661,32.076,36.57,29.24,38.779,27.509z"/>
		</g>
	</g>
	<g>
		<g>
			<rect x="12.139" y="26.013" fill="#F4B400" width="24" height="28"/>
		</g>
		<g>
			<path fill="#FFFFFF" d="M15.729,47.604l1.626-0.092c0.062,0,0.122-0.062,0.122-0.152l0.031-14.479l-1.81-0.093
				c0-0.797,0.03-1.718,0.062-2.546c1.534-0.03,4.57-0.092,6.318-0.092c2.976,0,5.185,0,6.963,0.798
				c1.382,0.644,2.608,2.239,2.608,3.804c0,2.086-1.596,3.712-3.559,4.448v0.243c2.577,0.432,4.633,2.395,4.633,4.972
				c0,3.222-3.161,5.733-8.438,5.733c-0.98,0-3.681-0.028-4.294-0.028c-1.043,0-3.098,0-4.294,0
				C15.698,49.322,15.698,48.402,15.729,47.604z M22.508,46.898c0,0.676,0.645,0.828,1.351,0.828c1.962,0,3.466-1.074,3.466-3.129
				c0-1.719-1.473-3.373-3.958-3.373c-0.307,0-0.736,0-0.797,0.028L22.508,46.898z M22.569,38.739c0.092,0.03,0.552,0.03,0.767,0.03
				c1.933,0,3.313-1.229,3.313-3.129c0-1.625-1.258-3.1-3.007-3.1c-0.521,0-0.828,0.031-1.043,0.093L22.569,38.739z"/>
		</g>
	</g>
	<g>
		<g>
			<rect x="20" y="8.711" fill="#4DBFD9" width="24" height="28"/>
		</g>
		<g>
			<path fill="#FFFFFF" d="M34.32,28.464h-5.086l-0.894,4.247h-4.918l5.532-20h5.812l5.532,20h-5.086L34.32,28.464z M33.454,24.373
				l-0.308-1.385c-0.446-1.907-0.896-4.339-1.341-6.339h-0.112c-0.39,2.031-0.838,4.432-1.285,6.339L30.1,24.373H33.454z"/>
		</g>
	</g>
</g>
</svg>
