<?xml version="1.0" encoding="utf-8"?>
<!-- Generator: Adobe Illustrator 15.1.0, SVG Export Plug-In . SVG Version: 6.00 Build 0)  -->
<!DOCTYPE svg PUBLIC "-//W3C//DTD SVG 1.1//EN" "http://www.w3.org/Graphics/SVG/1.1/DTD/svg11.dtd">
<svg version="1.1" id="Ebene_1" xmlns="http://www.w3.org/2000/svg" xmlns:xlink="http://www.w3.org/1999/xlink" x="0px" y="0px"
	 width="64px" height="64px" viewBox="0 0 64 64" enable-background="new 0 0 64 64" xml:space="preserve">
<g>
	<circle fill="#E5E5E5" cx="32" cy="32" r="32"/>
	<g>
		<path fill="#3D99DE" d="M28.707,12c0.611,0.654,1.223,1.44,1.744,2.226c-4.143,3.751-6.629,9.9-6.629,17.187
			c0,8.505,2.66,13.479,6.674,17.971c-0.654,0.654-1.439,1.353-2.225,1.92c-5.365-4.1-10.818-9.685-10.818-19.28
			C17.453,22.904,22.775,15.707,28.707,12z"/>
		<path fill="#3D99DE" d="M41.443,31.586c-2.182-0.48-4.014-1.746-4.014-4.448c-0.043-2.312,0.916-4.538,0.916-7.504
			c-0.043-2.442-0.479-4.101-4.799-4.101c-0.086-1.003-0.129-2.138-0.043-3.141c6.893,0,10.6,2.487,10.6,7.764
			c0.045,3.185-1.178,5.367-1.178,7.329c0,1.571,0.219,2.792,3.621,2.792c0,1.004,0,2.226-0.043,3.185
			c-3.359-0.044-3.666,1.133-3.666,2.835c0,2.574,1.223,4.973,1.223,8.287c0,4.799-4.494,7.416-10.557,7.416
			c-0.086-1.003-0.043-2.137,0-3.098c3.795,0,4.799-1.613,4.799-3.925c0-3.533-0.873-5.54-0.873-8.331
			c0-2.706,1.963-4.32,4.014-4.712V31.586z"/>
	</g>
</g>
</svg>
