<?xml version="1.0" encoding="utf-8"?>
<!-- Generator: Adobe Illustrator 15.1.0, SVG Export Plug-In . SVG Version: 6.00 Build 0)  -->
<!DOCTYPE svg PUBLIC "-//W3C//DTD SVG 1.1//EN" "http://www.w3.org/Graphics/SVG/1.1/DTD/svg11.dtd">
<svg version="1.1" id="Ebene_1" xmlns="http://www.w3.org/2000/svg" xmlns:xlink="http://www.w3.org/1999/xlink" x="0px" y="0px"
	 width="64px" height="64px" viewBox="0 0 64 64" enable-background="new 0 0 64 64" xml:space="preserve">
<g>
	<circle fill="#F05722" cx="32" cy="32" r="32"/>
	<g>
		<path fill="#43459D" d="M11.367,40.371c-1.877-1.877-2.77-4.309-2.77-7.57c0-4.062,2.031-7.293,4.555-8.832
			c1.908-1.17,3.816-1.662,6.186-1.662c1.939,0,3.724,0.492,5.324,1.508c2.37,1.508,3.908,4.709,3.908,8.309
			c0,2.986-1.046,6.156-3.139,8.156c-1.938,1.785-4.37,2.646-7.355,2.646C15.338,42.926,12.876,41.91,11.367,40.371z M21.339,39.049
			c1.077-1.385,1.477-3.664,1.477-6.217c0-2.494-0.522-4.709-1.262-6.125c-0.615-1.199-1.6-1.785-2.738-1.785
			c-1.262,0-2.124,0.463-2.832,1.324c-0.892,1.107-1.569,3.293-1.569,6.217c0,3.107,0.431,5.107,1.508,6.432
			c0.862,1.045,1.847,1.385,2.801,1.385C19.707,40.279,20.538,40.125,21.339,39.049z"/>
		<path fill="#43459D" d="M29.953,40.094l1.478-0.092c0.062,0,0.123-0.062,0.123-0.123c0-4.709,0-10.74,0-15.326l-1.97-0.061
			c0-0.863,0.03-1.816,0.062-2.617c1.754-0.154,6.616-0.799,6.924-0.799c0.062,0,0.093,0.031,0.093,0.123
			c0,2.555-0.093,5.969-0.123,9.109l0.153,0.029c3.017-1.477,3.539-1.568,4.739-1.568c1.293,0,2.894,1.23,3.632,2.523
			c0.308,0.553,0.462,1.293,0.462,2.277c0,1.908-0.062,4.309-0.093,6.432l1.569,0.061c0,0.832,0,1.756-0.03,2.555
			c-1.108,0-2.585,0-3.785,0c-1.293,0-2.77,0.031-3.939,0.031c0-0.801,0-1.693,0.03-2.555l1.077-0.061
			c0.062-0.031,0.093-0.094,0.093-0.154c0.031-1.354,0-3.293,0-4.494c0-1.199,0.031-1.969-0.277-2.492
			c-0.276-0.43-0.615-0.615-1.2-0.615c-0.707,0-1.631,0.4-2.369,0.893c-0.031,1.877-0.062,4.955-0.062,6.832l1.415,0.092
			c0,0.832,0,1.725-0.062,2.523c-1.139,0-2.677,0-4.062,0c-1.262,0-2.709,0.031-3.908,0.031
			C29.923,41.818,29.923,40.895,29.953,40.094z"/>
		<path fill="#43459D" d="M55.401,22.584c-0.246,2.4-1.077,10.186-1.385,13.232c-0.646,0.215-2.615,0.4-3.047,0.4
			c-0.062-0.461-0.615-5.016-0.738-6.031c-0.154-1.324-0.677-5.295-0.954-6.832c1.2-0.277,5.17-0.832,6.094-0.832
			C55.401,22.521,55.401,22.553,55.401,22.584z M55.094,40.494c0,1.447-1.046,2.432-2.646,2.432c-1.354,0-2.523-0.955-2.523-2.369
			c0-1.447,1.107-2.555,2.646-2.555S55.094,39.078,55.094,40.494z"/>
	</g>
</g>
</svg>
