<?xml version="1.0" encoding="utf-8"?>
<!-- Generator: Adobe Illustrator 15.1.0, SVG Export Plug-In . SVG Version: 6.00 Build 0)  -->
<!DOCTYPE svg PUBLIC "-//W3C//DTD SVG 1.1//EN" "http://www.w3.org/Graphics/SVG/1.1/DTD/svg11.dtd">
<svg version="1.1" id="Ebene_1" xmlns="http://www.w3.org/2000/svg" xmlns:xlink="http://www.w3.org/1999/xlink" x="0px" y="0px"
	 width="64px" height="64px" viewBox="0 0 64 64" enable-background="new 0 0 64 64" xml:space="preserve">
<circle fill="#464646" cx="32" cy="32" r="32"/>
<g>
	<path fill="#FFFFFF" d="M8.03,18.299c0-0.396,0.014-0.822,0.028-1.204c0.579,0,1.373,0,2.052,0c0.65,0,1.459,0,2.153,0
		c0,0.368-0.015,0.822-0.015,1.219l-0.91,0.028c-0.029,0-0.059,0.015-0.059,0.059l-0.028,6.395c0,0.271,0,0.312,0.665,0.312
		c0.564,0,0.939-0.058,1.142-0.1c0.13-0.028,0.202-0.113,0.26-0.27l0.506-1.461c0.491,0.086,0.983,0.185,1.431,0.284
		c-0.188,0.921-0.376,1.857-0.607,2.779c-0.708-0.014-2.645-0.028-4.653-0.028c-0.665,0-1.387,0.015-1.994,0.015
		c0-0.397,0.015-0.822,0.015-1.206l0.751-0.027c0.029-0.016,0.058-0.028,0.058-0.071l0.015-6.681L8.03,18.299z"/>
	<path fill="#FFFFFF" d="M21.857,18.299c0-0.396,0-0.822,0.014-1.204c0.607,0,1.503,0,2.182,0c0.708,0,1.532,0,2.138,0
		c0,0.368-0.014,0.822-0.014,1.204l-0.911,0.043c-0.029,0-0.029,0.015-0.029,0.071l-0.043,6.637l0.968,0.058
		c0,0.382,0,0.808-0.014,1.22c-0.593,0-1.445-0.015-2.168-0.015c-0.665,0-1.474,0.015-2.138,0.015c0-0.397,0.014-0.838,0.014-1.233
		l0.838-0.028c0.028,0,0.058-0.029,0.058-0.058v-6.666L21.857,18.299z"/>
	<path fill="#FFFFFF" d="M33.807,25.065c0.029,0,0.043-0.016,0.043-0.058l-0.014-6.679l-0.839-0.03c0-0.396,0-0.822,0.015-1.204
		c0.812,0,1.937,0,2.775,0c1.098,1.546,2.904,4.269,4.133,6.155h0.086c-0.029-1.617-0.029-3.277-0.043-4.921l-1.055-0.03
		c0-0.382,0.014-0.836,0.029-1.204c0.562,0,1.242,0,1.877,0c0.506,0,1.1-0.015,1.531-0.015c0,0.383,0,0.809-0.015,1.206
		l-0.636,0.043c-0.028,0-0.059,0.013-0.059,0.071l-0.059,7.771c-0.303,0.128-1.025,0.27-1.762,0.27
		c-0.953-1.12-2.572-3.178-4.234-5.616l-0.102,0.015c0,1.445-0.015,2.822-0.027,4.227l1.068,0.028c0,0.396,0,0.836-0.015,1.219
		c-0.606,0-1.389,0-2.065,0c-0.478,0-0.969,0.015-1.373,0.015c0-0.397,0-0.822,0.014-1.22L33.807,25.065z"/>
	<path fill="#FFFFFF" d="M49.498,25.078c0.043,0,0.072-0.028,0.072-0.056v-6.681l-0.838-0.028c0-0.411,0.014-0.837,0.026-1.219
		c0.537,0,1.287,0,1.896,0c0.447,0,3.033,0,3.381,0c0.605,0,1.113-0.015,1.432-0.015c0.057,0.837,0.115,1.688,0.145,2.524
		c-0.42,0.057-0.926,0.113-1.416,0.155l-0.231-1.092c-0.028-0.127-0.086-0.213-0.289-0.241c-0.2-0.026-0.62-0.085-1.518-0.085
		c-0.044,0-0.101,0-0.144,0l-0.016,2.695c0.447,0,0.867-0.014,1.271-0.029c0.088-0.014,0.157-0.113,0.188-0.27l0.086-0.538
		c0.465,0,0.941,0.014,1.359,0.028c0,0.44-0.016,0.964-0.016,1.476c0,0.511-0.015,1.021-0.015,1.39
		c-0.418,0.027-0.896,0.042-1.356,0.042l-0.072-0.567c-0.017-0.212-0.086-0.297-0.217-0.297c-0.404-0.015-0.812-0.029-1.229-0.029
		l-0.017,2.511c0,0.27,0.104,0.312,0.752,0.312c0.595,0,0.953-0.043,1.156-0.086c0.146-0.043,0.217-0.114,0.275-0.27l0.418-1.135
		c0.492,0.07,0.998,0.171,1.416,0.255c-0.158,0.824-0.348,1.659-0.533,2.497c-0.725,0-2.732-0.015-4.74-0.015
		c-0.664,0-1.401,0.015-1.979,0.015c0-0.397,0-0.822,0.014-1.206L49.498,25.078z"/>
	<path fill="#FFFFFF" d="M10.883,31.812h1.188v1.978h1.805v-1.978h1.18v5.137h-1.18v-2.145h-1.805v2.145h-1.188V31.812z"/>
	<path fill="#FFFFFF" d="M19.488,31.812h3.283v0.977h-2.095v1.031h1.782v0.97h-1.782v1.183h2.175v0.978h-3.363V31.812z"/>
	<path fill="#FFFFFF" d="M27.082,31.812h1.188v5.137h-1.188V31.812z"/>
	<path fill="#FFFFFF" d="M35.029,31.718c0.738,0,1.275,0.323,1.629,0.67l-0.65,0.717c-0.266-0.236-0.514-0.387-0.963-0.387
		c-0.803,0-1.381,0.621-1.381,1.654c0,1.055,0.49,1.669,1.477,1.669c0.209,0,0.426-0.056,0.555-0.158v-0.881h-0.866v-0.944h1.918
		v2.362c-0.377,0.323-1.026,0.622-1.759,0.622c-1.411,0-2.535-0.906-2.535-2.632C32.452,32.711,33.607,31.718,35.029,31.718z"/>
	<path fill="#FFFFFF" d="M41.018,31.812h1.188v1.978h1.806v-1.978h1.182v5.137H44.01v-2.145h-1.805v2.145h-1.188V31.812
		L41.018,31.812z"/>
	<path fill="#FFFFFF" d="M50.65,32.789h-1.445v-0.977h4.061v0.977H51.83v4.16h-1.18V32.789z"/>
	<path fill="#FFFFFF" d="M18.649,42.551h2.48v0.733h-1.59v0.892h1.355v0.733H19.54v1.495h-0.891V42.551z"/>
	<path fill="#FFFFFF" d="M23.959,44.458c0-1.257,0.729-1.978,1.782-1.978c1.059,0,1.782,0.727,1.782,1.978
		c0,1.261-0.723,2.017-1.782,2.017C24.688,46.475,23.959,45.719,23.959,44.458z M26.615,44.458c0-0.767-0.337-1.228-0.873-1.228
		c-0.53,0-0.873,0.461-0.873,1.228c0,0.774,0.343,1.267,0.873,1.267C26.277,45.725,26.615,45.232,26.615,44.458z"/>
	<path fill="#FFFFFF" d="M30.666,42.551h0.909l1.022,1.914l0.391,0.852h0.025c-0.043-0.406-0.115-0.95-0.115-1.406v-1.358h0.843
		v3.854h-0.909l-1.023-1.922l-0.385-0.838H31.4c0.042,0.424,0.114,0.938,0.114,1.394v1.366h-0.849L30.666,42.551L30.666,42.551z"/>
	<path fill="#FFFFFF" d="M37.842,43.284h-1.084v-0.733h3.047v0.733h-1.078v3.12h-0.885V43.284L37.842,43.284z"/>
	<path fill="#FFFFFF" d="M42.93,45.322c0.277,0.236,0.639,0.4,0.963,0.4c0.367,0,0.549-0.141,0.549-0.371
		c0-0.242-0.223-0.318-0.565-0.461l-0.506-0.214c-0.41-0.159-0.795-0.489-0.795-1.051c0-0.64,0.584-1.146,1.396-1.146
		c0.451,0,0.928,0.178,1.266,0.508l-0.444,0.549c-0.26-0.194-0.506-0.307-0.819-0.307c-0.302,0-0.5,0.129-0.5,0.348
		c0,0.238,0.26,0.318,0.604,0.456l0.5,0.2c0.475,0.188,0.775,0.502,0.775,1.047c0,0.638-0.541,1.193-1.476,1.193
		c-0.513,0-1.053-0.189-1.457-0.557L42.93,45.322z"/>
	<path fill="#FFFFFF" d="M25.925,52.177c0-0.145,0-0.298,0.005-0.435c0.219,0,0.542,0,0.788,0c0.256,0,0.553,0,0.773,0
		c0,0.132-0.006,0.296-0.006,0.435l-0.329,0.015c-0.01,0-0.01,0.006-0.01,0.025l-0.016,2.397l0.35,0.021
		c0,0.139,0,0.291-0.005,0.439c-0.214,0-0.522-0.006-0.782-0.006c-0.241,0-0.533,0.006-0.772,0.006c0-0.143,0.005-0.303,0.005-0.445
		l0.303-0.009c0.01,0,0.021-0.013,0.021-0.021v-2.408L25.925,52.177z"/>
	<path fill="#FFFFFF" d="M32.775,54.016c-0.078,0.354-0.162,0.711-0.25,1.064c-0.11,0-0.71-0.012-1.649-0.012
		c-0.287,0-0.704,0-0.819,0c-0.058-0.127-0.12-0.28-0.162-0.414c0.767-1.002,1.253-1.668,1.795-2.396l-0.011-0.021
		c-0.104,0-0.208,0-0.312,0c-0.376,0-0.439,0.007-0.506,0.031c-0.058,0.021-0.094,0.062-0.11,0.117l-0.183,0.514
		c-0.183-0.035-0.381-0.07-0.547-0.108c0.062-0.353,0.13-0.717,0.198-1.063c0.052,0.004,0.391,0.017,0.553,0.017h1.774
		c0.062,0.183,0.12,0.399,0.162,0.587c-0.84,1.105-1.367,1.736-1.78,2.225l0.011,0.021c0.402-0.005,0.782-0.021,0.955-0.062
		c0.088-0.025,0.135-0.082,0.162-0.158l0.162-0.445C32.405,53.938,32.609,53.975,32.775,54.016z"/>
	<path fill="#FFFFFF" d="M35.541,54.624c0.016,0,0.025-0.01,0.025-0.021v-2.412l-0.301-0.01c0-0.149,0.004-0.304,0.01-0.439
		c0.192,0,0.463,0,0.684,0c0.162,0,1.096,0,1.221,0c0.219,0,0.402-0.006,0.516-0.006c0.021,0.302,0.043,0.609,0.054,0.91
		c-0.149,0.021-0.334,0.041-0.513,0.058l-0.082-0.396c-0.012-0.045-0.032-0.078-0.104-0.086c-0.071-0.013-0.225-0.031-0.547-0.031
		c-0.017,0-0.037,0-0.053,0l-0.007,0.973c0.162,0,0.314-0.005,0.459-0.012c0.031-0.004,0.06-0.039,0.068-0.096l0.031-0.193
		c0.166,0,0.34,0.004,0.49,0.01c0,0.158-0.006,0.348-0.006,0.531c0,0.185-0.004,0.369-0.004,0.503
		c-0.15,0.011-0.324,0.015-0.49,0.015l-0.027-0.204c-0.004-0.077-0.031-0.106-0.078-0.106c-0.145-0.006-0.291-0.01-0.443-0.01
		l-0.004,0.904c0,0.098,0.035,0.114,0.271,0.114c0.213,0,0.344-0.017,0.416-0.032c0.053-0.015,0.078-0.041,0.1-0.098l0.152-0.409
		c0.176,0.024,0.359,0.062,0.51,0.093c-0.057,0.297-0.125,0.6-0.193,0.9c-0.26,0-0.983-0.006-1.711-0.006
		c-0.239,0-0.506,0.006-0.715,0.006c0-0.143,0-0.297,0.006-0.436L35.541,54.624z"/>
</g>
</svg>
