<?xml version="1.0" encoding="utf-8"?>
<!-- Generator: Adobe Illustrator 15.1.0, SVG Export Plug-In . SVG Version: 6.00 Build 0)  -->
<!DOCTYPE svg PUBLIC "-//W3C//DTD SVG 1.1//EN" "http://www.w3.org/Graphics/SVG/1.1/DTD/svg11.dtd">
<svg version="1.1" id="Ebene_1" xmlns="http://www.w3.org/2000/svg" xmlns:xlink="http://www.w3.org/1999/xlink" x="0px" y="0px"
	 width="64px" height="64px" viewBox="0 0 64 64" enable-background="new 0 0 64 64" xml:space="preserve">
<g>
	<circle fill="#94D8E8" cx="32" cy="32" r="32"/>
	<g>
		<path fill="#F05722" d="M12.674,35.037c1.159,0,1.999,0.92,1.999,2.078c0,1.16-0.84,2.08-1.999,2.08s-1.999-0.92-1.999-2.08
			C10.676,35.957,11.515,35.037,12.674,35.037z"/>
		<path fill="#F05722" d="M23.107,27.682c-0.32-0.119-0.68-0.199-1-0.199c-0.639,0-1.039,0.299-1.039,1.238v0.24h1.679v2.678h-1.679
			v7.316H17.63v-7.316h-1.319v-2.557l1.319-0.1v-0.141c0-2.139,1-4.037,3.958-4.037c0.919,0,1.679,0.199,2.119,0.359L23.107,27.682z
			"/>
		<path fill="#F05722" d="M28.462,28.721c2.559,0,4.958,1.92,4.958,5.238c0,3.316-2.399,5.236-4.958,5.236
			c-2.558,0-4.957-1.92-4.957-5.236C23.506,30.641,25.904,28.721,28.462,28.721z M28.462,36.436c1.04,0,1.439-0.959,1.439-2.477
			c0-1.52-0.4-2.479-1.439-2.479c-1.039,0-1.439,0.959-1.439,2.479C27.023,35.477,27.423,36.436,28.462,36.436z"/>
		<path fill="#F05722" d="M35.217,28.961h2.799l0.24,1.199h0.078c0.801-0.76,1.799-1.439,3.158-1.439c2.199,0,3.119,1.6,3.119,4.078
			v6.156h-3.438v-5.717c0-1.279-0.32-1.6-1-1.6c-0.641,0-1,0.281-1.52,0.76v6.557h-3.438V28.961z"/>
		<path fill="#F05722" d="M47.287,31.639h-1.318v-2.557l1.52-0.121l0.398-2.598h2.838v2.598h2.279v2.678h-2.279v3.418
			c0,1.1,0.561,1.459,1.199,1.459c0.32,0,0.641-0.08,0.881-0.158l0.52,2.479c-0.52,0.158-1.26,0.359-2.359,0.359
			c-2.598,0-3.678-1.639-3.678-4.078V31.639z"/>
	</g>
</g>
</svg>
