<?xml version="1.0" encoding="utf-8"?>
<!-- Generator: Adobe Illustrator 15.1.0, SVG Export Plug-In . SVG Version: 6.00 Build 0)  -->
<!DOCTYPE svg PUBLIC "-//W3C//DTD SVG 1.1//EN" "http://www.w3.org/Graphics/SVG/1.1/DTD/svg11.dtd">
<svg version="1.1" id="Ebene_1" xmlns="http://www.w3.org/2000/svg" xmlns:xlink="http://www.w3.org/1999/xlink" x="0px" y="0px"
	 width="64px" height="64px" viewBox="0 0 64 64" enable-background="new 0 0 64 64" xml:space="preserve">
<circle fill="#E5E5E5" cx="32" cy="32" r="32"/>
<g>
	<path fill="#43459D" d="M10.684,46.912c2.697-1.18,4.045-2.821,4.045-5.352c-0.127,0.043-0.295,0.043-0.422,0.043
		c-2.021,0-3.623-1.349-3.623-3.453c0-2.358,1.518-3.877,3.623-3.877c2.949,0,4.465,2.274,4.465,6.15
		c0,4.213-2.105,7.499-6.57,9.605L10.684,46.912z M21.637,46.912c2.697-1.18,4.045-2.821,4.045-5.352
		c-0.127,0.043-0.295,0.043-0.422,0.043c-2.021,0-3.623-1.349-3.623-3.453c0-2.358,1.516-3.877,3.623-3.877
		c2.949,0,4.467,2.274,4.467,6.15c0,4.213-2.107,7.499-6.574,9.605L21.637,46.912z"/>
	<path fill="#43459D" d="M42.361,17.086c-2.697,1.181-4.045,2.823-4.045,5.351c0.127-0.042,0.295-0.042,0.422-0.042
		c2.021,0,3.623,1.348,3.623,3.454c0,2.358-1.519,3.876-3.623,3.876c-2.949,0-4.467-2.274-4.467-6.15
		c0-4.213,2.106-7.499,6.571-9.605L42.361,17.086z M53.314,17.086c-2.697,1.181-4.045,2.823-4.045,5.351
		c0.127-0.042,0.295-0.042,0.422-0.042c2.021,0,3.623,1.348,3.623,3.454c0,2.358-1.519,3.876-3.623,3.876
		c-2.949,0-4.467-2.274-4.467-6.15c0-4.213,2.106-7.499,6.571-9.605L53.314,17.086z"/>
</g>
</svg>
