<?xml version="1.0" encoding="utf-8"?>
<!-- Generator: Adobe Illustrator 15.1.0, SVG Export Plug-In . SVG Version: 6.00 Build 0)  -->
<!DOCTYPE svg PUBLIC "-//W3C//DTD SVG 1.1//EN" "http://www.w3.org/Graphics/SVG/1.1/DTD/svg11.dtd">
<svg version="1.1" id="Ebene_1" xmlns="http://www.w3.org/2000/svg" xmlns:xlink="http://www.w3.org/1999/xlink" x="0px" y="0px"
	 width="30px" height="41px" viewBox="0 0 30 41" enable-background="new 0 0 30 41" xml:space="preserve">
<g>
	<g>
		<defs>
			<rect id="SVGID_1_" width="30" height="40.859"/>
		</defs>
		<clipPath id="SVGID_2_">
			<use xlink:href="#SVGID_1_"  overflow="visible"/>
		</clipPath>
		<path clip-path="url(#SVGID_2_)" fill="#F2726C" d="M15.001,40.226c7.934,0,14.365-6.432,14.365-14.366
			s-6.432-14.366-14.365-14.366c-7.936,0-14.367,6.432-14.367,14.366S7.065,40.226,15.001,40.226"/>
	</g>
	<g>
		<defs>
			<path id="SVGID_3_" d="M0.634,25.859c0,7.935,6.432,14.366,14.366,14.366s14.368-6.432,14.368-14.366S22.935,11.493,15,11.493
				S0.634,17.925,0.634,25.859"/>
		</defs>
		<clipPath id="SVGID_4_">
			<use xlink:href="#SVGID_3_"  overflow="visible"/>
		</clipPath>
		<rect x="14.641" clip-path="url(#SVGID_4_)" fill="#4D4848" width="0.719" height="15.804"/>
		<rect x="13.943" y="15.804" clip-path="url(#SVGID_4_)" fill="#E4E4E4" width="2.113" height="5.366"/>
		
			<rect x="13.943" y="15.804" clip-path="url(#SVGID_4_)" fill="none" stroke="#4D4848" stroke-width="0.75" stroke-linejoin="round" width="2.113" height="5.366"/>
		<polygon clip-path="url(#SVGID_4_)" fill="#C3C3C3" points="13.563,31.176 12.845,43.1 17.154,43.1 16.438,31.176 		"/>
		<polygon clip-path="url(#SVGID_4_)" fill="none" stroke="#4D4848" stroke-width="0.75" points="13.563,31.176 12.845,43.1 
			17.154,43.1 16.438,31.176 		"/>
		<path clip-path="url(#SVGID_4_)" fill="#E4E4E4" d="M15.001,31.226c2.964,0,5.365-2.402,5.365-5.366
			c0-2.963-2.401-5.367-5.365-5.367c-2.965,0-5.367,2.404-5.367,5.367C9.634,28.823,12.036,31.226,15.001,31.226"/>
	</g>
	<g>
		<defs>
			<path id="SVGID_5_" d="M9.634,25.859c0,2.963,2.403,5.366,5.366,5.366c2.965,0,5.366-2.403,5.366-5.366S17.965,20.493,15,20.493
				C12.037,20.493,9.634,22.896,9.634,25.859"/>
		</defs>
		<clipPath id="SVGID_6_">
			<use xlink:href="#SVGID_5_"  overflow="visible"/>
		</clipPath>
		<path clip-path="url(#SVGID_6_)" fill="#4D4848" d="M10.69,23.13c0.198,0,0.358-0.161,0.358-0.358c0-0.199-0.16-0.36-0.358-0.36
			c-0.199,0-0.359,0.161-0.359,0.36C10.331,22.969,10.491,23.13,10.69,23.13"/>
		<path clip-path="url(#SVGID_6_)" fill="#4D4848" d="M10.69,24.566c0.198,0,0.358-0.161,0.358-0.358c0-0.199-0.16-0.36-0.358-0.36
			c-0.199,0-0.359,0.161-0.359,0.36C10.331,24.405,10.491,24.566,10.69,24.566"/>
		<path clip-path="url(#SVGID_6_)" fill="#4D4848" d="M10.69,26.003c0.198,0,0.358-0.161,0.358-0.359
			c0-0.197-0.16-0.359-0.358-0.359c-0.199,0-0.359,0.162-0.359,0.359C10.331,25.842,10.491,26.003,10.69,26.003"/>
		<path clip-path="url(#SVGID_6_)" fill="#4D4848" d="M10.69,27.439c0.198,0,0.358-0.161,0.358-0.358c0-0.198-0.16-0.36-0.358-0.36
			c-0.199,0-0.359,0.162-0.359,0.36C10.331,27.278,10.491,27.439,10.69,27.439"/>
		<path clip-path="url(#SVGID_6_)" fill="#4D4848" d="M12.126,21.872c0.2,0,0.359-0.161,0.359-0.357c0-0.199-0.159-0.36-0.359-0.36
			c-0.198,0-0.358,0.161-0.358,0.36C11.768,21.711,11.928,21.872,12.126,21.872"/>
		<path clip-path="url(#SVGID_6_)" fill="#4D4848" d="M12.126,23.13c0.2,0,0.359-0.161,0.359-0.358c0-0.199-0.159-0.36-0.359-0.36
			c-0.198,0-0.358,0.161-0.358,0.36C11.768,22.969,11.928,23.13,12.126,23.13"/>
		<path clip-path="url(#SVGID_6_)" fill="#4D4848" d="M12.126,24.566c0.2,0,0.359-0.161,0.359-0.358c0-0.199-0.159-0.36-0.359-0.36
			c-0.198,0-0.358,0.161-0.358,0.36C11.768,24.405,11.928,24.566,12.126,24.566"/>
		<path clip-path="url(#SVGID_6_)" fill="#4D4848" d="M12.126,26.003c0.2,0,0.359-0.161,0.359-0.359
			c0-0.197-0.159-0.359-0.359-0.359c-0.198,0-0.358,0.162-0.358,0.359C11.768,25.842,11.928,26.003,12.126,26.003"/>
		<path clip-path="url(#SVGID_6_)" fill="#4D4848" d="M12.126,27.439c0.2,0,0.359-0.161,0.359-0.358c0-0.198-0.159-0.36-0.359-0.36
			c-0.198,0-0.358,0.162-0.358,0.36C11.768,27.278,11.928,27.439,12.126,27.439"/>
		<path clip-path="url(#SVGID_6_)" fill="#4D4848" d="M13.563,21.693c0.198,0,0.358-0.161,0.358-0.359
			c0-0.199-0.16-0.359-0.358-0.359s-0.358,0.16-0.358,0.359C13.205,21.532,13.365,21.693,13.563,21.693"/>
		<path clip-path="url(#SVGID_6_)" fill="#4D4848" d="M13.563,23.13c0.198,0,0.358-0.161,0.358-0.358c0-0.199-0.16-0.36-0.358-0.36
			s-0.358,0.161-0.358,0.36C13.205,22.969,13.365,23.13,13.563,23.13"/>
		<path clip-path="url(#SVGID_6_)" fill="#4D4848" d="M13.563,24.566c0.198,0,0.358-0.161,0.358-0.358c0-0.199-0.16-0.36-0.358-0.36
			s-0.358,0.161-0.358,0.36C13.205,24.405,13.365,24.566,13.563,24.566"/>
		<path clip-path="url(#SVGID_6_)" fill="#4D4848" d="M13.563,26.003c0.198,0,0.358-0.161,0.358-0.359
			c0-0.197-0.16-0.359-0.358-0.359s-0.358,0.162-0.358,0.359C13.205,25.842,13.365,26.003,13.563,26.003"/>
		<path clip-path="url(#SVGID_6_)" fill="#4D4848" d="M13.563,27.439c0.198,0,0.358-0.161,0.358-0.358c0-0.198-0.16-0.36-0.358-0.36
			s-0.358,0.162-0.358,0.36C13.205,27.278,13.365,27.439,13.563,27.439"/>
		<path clip-path="url(#SVGID_6_)" fill="#4D4848" d="M15.001,21.514c0.198,0,0.358-0.161,0.358-0.358c0-0.199-0.16-0.36-0.358-0.36
			c-0.2,0-0.359,0.161-0.359,0.36C14.642,21.353,14.801,21.514,15.001,21.514"/>
		<path clip-path="url(#SVGID_6_)" fill="#4D4848" d="M15.001,23.13c0.198,0,0.358-0.161,0.358-0.358c0-0.199-0.16-0.36-0.358-0.36
			c-0.2,0-0.359,0.161-0.359,0.36C14.642,22.969,14.801,23.13,15.001,23.13"/>
		<path clip-path="url(#SVGID_6_)" fill="#4D4848" d="M15.001,24.566c0.198,0,0.358-0.161,0.358-0.358c0-0.199-0.16-0.36-0.358-0.36
			c-0.2,0-0.359,0.161-0.359,0.36C14.642,24.405,14.801,24.566,15.001,24.566"/>
		<path clip-path="url(#SVGID_6_)" fill="#4D4848" d="M15.001,26.003c0.198,0,0.358-0.161,0.358-0.359
			c0-0.197-0.16-0.359-0.358-0.359c-0.2,0-0.359,0.162-0.359,0.359C14.642,25.842,14.801,26.003,15.001,26.003"/>
		<path clip-path="url(#SVGID_6_)" fill="#4D4848" d="M15.001,27.439c0.198,0,0.358-0.161,0.358-0.358c0-0.198-0.16-0.36-0.358-0.36
			c-0.2,0-0.359,0.162-0.359,0.36C14.642,27.278,14.801,27.439,15.001,27.439"/>
		<path clip-path="url(#SVGID_6_)" fill="#4D4848" d="M16.437,21.693c0.199,0,0.358-0.161,0.358-0.359
			c0-0.199-0.159-0.359-0.358-0.359c-0.198,0-0.358,0.16-0.358,0.359C16.078,21.532,16.238,21.693,16.437,21.693"/>
		<path clip-path="url(#SVGID_6_)" fill="#4D4848" d="M16.437,23.13c0.199,0,0.358-0.161,0.358-0.358c0-0.199-0.159-0.36-0.358-0.36
			c-0.198,0-0.358,0.161-0.358,0.36C16.078,22.969,16.238,23.13,16.437,23.13"/>
		<path clip-path="url(#SVGID_6_)" fill="#4D4848" d="M16.437,24.566c0.199,0,0.358-0.161,0.358-0.358
			c0-0.199-0.159-0.36-0.358-0.36c-0.198,0-0.358,0.161-0.358,0.36C16.078,24.405,16.238,24.566,16.437,24.566"/>
		<path clip-path="url(#SVGID_6_)" fill="#4D4848" d="M16.437,26.003c0.199,0,0.358-0.161,0.358-0.359
			c0-0.197-0.159-0.359-0.358-0.359c-0.198,0-0.358,0.162-0.358,0.359C16.078,25.842,16.238,26.003,16.437,26.003"/>
		<path clip-path="url(#SVGID_6_)" fill="#4D4848" d="M16.437,27.439c0.199,0,0.358-0.161,0.358-0.358
			c0-0.198-0.159-0.36-0.358-0.36c-0.198,0-0.358,0.162-0.358,0.36C16.078,27.278,16.238,27.439,16.437,27.439"/>
		<path clip-path="url(#SVGID_6_)" fill="#4D4848" d="M17.873,21.872c0.199,0,0.358-0.161,0.358-0.357
			c0-0.199-0.159-0.36-0.358-0.36c-0.197,0-0.358,0.161-0.358,0.36C17.515,21.711,17.676,21.872,17.873,21.872"/>
		<path clip-path="url(#SVGID_6_)" fill="#4D4848" d="M17.873,23.13c0.199,0,0.358-0.161,0.358-0.358c0-0.199-0.159-0.36-0.358-0.36
			c-0.197,0-0.358,0.161-0.358,0.36C17.515,22.969,17.676,23.13,17.873,23.13"/>
		<path clip-path="url(#SVGID_6_)" fill="#4D4848" d="M17.873,24.566c0.199,0,0.358-0.161,0.358-0.358
			c0-0.199-0.159-0.36-0.358-0.36c-0.197,0-0.358,0.161-0.358,0.36C17.515,24.405,17.676,24.566,17.873,24.566"/>
		<path clip-path="url(#SVGID_6_)" fill="#4D4848" d="M17.873,26.003c0.199,0,0.358-0.161,0.358-0.359
			c0-0.197-0.159-0.359-0.358-0.359c-0.197,0-0.358,0.162-0.358,0.359C17.515,25.842,17.676,26.003,17.873,26.003"/>
		<path clip-path="url(#SVGID_6_)" fill="#4D4848" d="M17.873,27.439c0.199,0,0.358-0.161,0.358-0.358
			c0-0.198-0.159-0.36-0.358-0.36c-0.197,0-0.358,0.162-0.358,0.36C17.515,27.278,17.676,27.439,17.873,27.439"/>
		<path clip-path="url(#SVGID_6_)" fill="#4D4848" d="M19.311,23.13c0.198,0,0.358-0.161,0.358-0.358c0-0.199-0.16-0.36-0.358-0.36
			c-0.2,0-0.359,0.161-0.359,0.36C18.951,22.969,19.11,23.13,19.311,23.13"/>
		<path clip-path="url(#SVGID_6_)" fill="#4D4848" d="M19.311,24.566c0.198,0,0.358-0.161,0.358-0.358c0-0.199-0.16-0.36-0.358-0.36
			c-0.2,0-0.359,0.161-0.359,0.36C18.951,24.405,19.11,24.566,19.311,24.566"/>
		<path clip-path="url(#SVGID_6_)" fill="#4D4848" d="M19.311,26.003c0.198,0,0.358-0.161,0.358-0.359
			c0-0.197-0.16-0.359-0.358-0.359c-0.2,0-0.359,0.162-0.359,0.359C18.951,25.842,19.11,26.003,19.311,26.003"/>
		<path clip-path="url(#SVGID_6_)" fill="#4D4848" d="M19.311,27.439c0.198,0,0.358-0.161,0.358-0.358c0-0.198-0.16-0.36-0.358-0.36
			c-0.2,0-0.359,0.162-0.359,0.36C18.951,27.278,19.11,27.439,19.311,27.439"/>
		<rect x="9.254" y="28.014" clip-path="url(#SVGID_6_)" fill="#4D4848" width="11.493" height="0.719"/>
		<rect x="9.254" y="29.451" clip-path="url(#SVGID_6_)" fill="#4D4848" width="11.493" height="0.719"/>
	</g>
	<g>
		<defs>
			<path id="SVGID_7_" d="M0.634,25.859c0,7.935,6.432,14.366,14.366,14.366s14.368-6.432,14.368-14.366S22.935,11.493,15,11.493
				S0.634,17.925,0.634,25.859"/>
		</defs>
		<clipPath id="SVGID_8_">
			<use xlink:href="#SVGID_7_"  overflow="visible"/>
		</clipPath>
		<circle clip-path="url(#SVGID_8_)" fill="none" stroke="#4D4848" stroke-width="0.75" cx="15.001" cy="25.859" r="5.367"/>
		<rect x="12.507" y="33.222" clip-path="url(#SVGID_8_)" fill="#C3C3C3" width="4.986" height="1.596"/>
		
			<rect x="12.507" y="33.222" clip-path="url(#SVGID_8_)" fill="none" stroke="#4D4848" stroke-width="0.75" stroke-linejoin="round" width="4.986" height="1.596"/>
	</g>
	<g>
		<defs>
			<rect id="SVGID_9_" width="30" height="40.859"/>
		</defs>
		<clipPath id="SVGID_10_">
			<use xlink:href="#SVGID_9_"  overflow="visible"/>
		</clipPath>
		<circle clip-path="url(#SVGID_10_)" fill="none" stroke="#4D4848" stroke-width="1.25" cx="15.001" cy="25.859" r="14.366"/>
	</g>
	<rect x="14.641" fill="#4D4848" width="0.719" height="15.804"/>
</g>
</svg>
