<?xml version="1.0" encoding="utf-8"?>
<!-- Generator: Adobe Illustrator 15.1.0, SVG Export Plug-In . SVG Version: 6.00 Build 0)  -->
<!DOCTYPE svg PUBLIC "-//W3C//DTD SVG 1.1//EN" "http://www.w3.org/Graphics/SVG/1.1/DTD/svg11.dtd">
<svg version="1.1" id="Ebene_1" xmlns="http://www.w3.org/2000/svg" xmlns:xlink="http://www.w3.org/1999/xlink" x="0px" y="0px"
	 width="212px" height="25px" viewBox="0 0 212 25" enable-background="new 0 0 212 25" xml:space="preserve">
<g>
	<g id="layer1" transform="translate(-428.71429,-460.51587)">
		<g id="g2993" transform="matrix(1.3703704,0,0,-1.3703704,430.71429,538.48235)">
			<g id="g2995" transform="translate(165.274,21.91)">
				<path id="path2997" fill="#ADB7C0" d="M-127.289,22.545c-0.175-0.11-0.359-0.205-0.552-0.286
					c-0.261-0.104-0.508-0.159-0.735-0.159c-0.351,0-0.619,0.05-0.802,0.155c-0.181,0.101-0.277,0.276-0.274,0.526
					c0,0.289,0.067,0.512,0.205,0.688c0.138,0.17,0.344,0.306,0.601,0.407c0.255,0.086,0.568,0.157,0.929,0.208
					c0.321,0.041,0.956,0.114,1.037,0.114c0.081,0.001,0.136,0.046,0.1-0.17c-0.017-0.095-0.2-0.847-0.284-1.189
					C-127.089,22.735-127.225,22.586-127.289,22.545z M-124.795,27.838c-0.535,0.299-1.373,0.449-2.518,0.449
					c-0.566,0-1.135-0.045-1.707-0.134c-0.418-0.064-0.462-0.075-0.722-0.131c-0.536-0.117-0.619-0.653-0.619-0.653l-0.171-0.708
					c-0.097-0.452,0.16-0.433,0.275-0.398c0.234,0.071,0.36,0.141,0.837,0.249c0.457,0.103,0.939,0.181,1.323,0.178
					c0.564,0,0.993-0.062,1.278-0.181c0.284-0.124,0.425-0.336,0.425-0.639c0.002-0.072,0.004-0.14-0.022-0.2
					c-0.024-0.056-0.068-0.109-0.203-0.128c-0.806-0.048-1.383-0.121-2.079-0.222c-0.686-0.096-1.287-0.263-1.788-0.492
					c-0.536-0.238-0.936-0.556-1.212-0.958c-0.269-0.405-0.404-0.894-0.404-1.472c0-0.545,0.195-0.991,0.575-1.335
					c0.383-0.341,0.882-0.509,1.486-0.509c0.377,0.001,0.672,0.03,0.884,0.082c0.209,0.053,0.438,0.128,0.679,0.232
					c0.18,0.076,0.374,0.185,0.579,0.321c0.205,0.137,0.349,0.234,0.53,0.354l0.007-0.011l-0.051-0.228
					c0-0.001-0.004-0.002-0.004-0.005l0.002-0.004c-0.058-0.274,0.105-0.5,0.376-0.527l0.003-0.005h0.024l0.001-0.001
					c0.18,0,0.796,0,1.085,0.001h0.2c0.014,0,0.015,0.004,0.021,0.006c0.275,0.034,0.54,0.259,0.603,0.529l1.029,4.441
					c0.024,0.105,0.042,0.225,0.053,0.364c0.013,0.141,0.028,0.256,0.024,0.34C-123.992,27.074-124.262,27.539-124.795,27.838"/>
			</g>
			<g id="g2999">
				<g>
					<g id="g3001">
						<g id="g3007" transform="translate(101.082,45.728)">
							<path id="path3009" fill="#ADB7C0" d="M-78.306,4.37c-0.302,0-0.698-0.244-0.885-0.539c0,0-2.02-3.462-2.218-3.809
								c-0.108-0.185-0.217-0.068-0.236,0.003c-0.014,0.083-0.626,3.783-0.626,3.783c-0.068,0.298-0.379,0.553-0.768,0.552
								l-1.26-0.001c-0.304,0-0.492-0.243-0.425-0.537c0,0,0.962-5.455,1.149-6.738c0.094-0.71-0.009-0.836-0.009-0.836
								l-1.249-2.175c-0.182-0.295-0.083-0.537,0.219-0.537l1.459,0.001c0.301,0,0.701,0.242,0.881,0.537l5.614,9.494
								c0,0,0.537,0.811,0.042,0.804C-76.953,4.366-78.306,4.37-78.306,4.37"/>
						</g>
						<g id="g3011" transform="translate(39.137,49.474)">
							<path id="path3013" fill="#ADB7C0" d="M-31.039,1.512c-0.175,0.342-0.438,0.619-0.772,0.829
								c-0.348,0.215-0.752,0.362-1.224,0.451c-0.474,0.085-1.028,0.126-1.663,0.133l-2.942-0.002
								c-0.306-0.004-0.605-0.243-0.676-0.537l-1.984-8.623c-0.068-0.295,0.123-0.539,0.428-0.539h1.41
								c0.304,0,0.606,0.238,0.675,0.539l0.485,2.093c0.064,0.292,0.366,0.534,0.671,0.534h0.403
								c1.723,0.001,3.061,0.353,4.021,1.06c0.959,0.705,1.439,1.638,1.437,2.792C-30.769,0.749-30.856,1.173-31.039,1.512
								 M-34.082-1.305c-0.424-0.311-1.013-0.467-1.778-0.467h-0.345c-0.305,0-0.497,0.242-0.43,0.538l0.424,1.828
								c0.064,0.295,0.369,0.539,0.673,0.536l0.461,0.002c0.537,0,0.948-0.092,1.224-0.275c0.273-0.179,0.41-0.46,0.406-0.839
								C-33.439-0.552-33.655-0.994-34.082-1.305"/>
						</g>
					</g>
				</g>
			</g>
			<g id="g3015" transform="translate(147.108,49.341)">
				<path id="path3017" fill="#ADB7C0" d="M-113.427,1.614c-0.175,0.341-0.44,0.616-0.775,0.831
					c-0.344,0.213-0.753,0.363-1.226,0.45c-0.467,0.082-1.023,0.129-1.658,0.13l-2.947-0.001c-0.304-0.006-0.601-0.244-0.671-0.537
					l-1.983-8.625c-0.071-0.293,0.125-0.538,0.423-0.536l1.415,0.002c0.3-0.002,0.606,0.241,0.676,0.534l0.478,2.093
					c0.067,0.293,0.372,0.539,0.676,0.535h0.402c1.727,0,3.064,0.354,4.022,1.059c0.955,0.71,1.437,1.64,1.437,2.797
					C-113.161,0.851-113.248,1.276-113.427,1.614 M-116.469-1.208c-0.422-0.307-1.015-0.461-1.777-0.461h-0.351
					c-0.304-0.003-0.5,0.242-0.428,0.536l0.423,1.831c0.063,0.289,0.371,0.536,0.671,0.533l0.463,0.002
					c0.541-0.002,0.944-0.093,1.225-0.273c0.274-0.182,0.407-0.464,0.409-0.84C-115.832-0.453-116.045-0.893-116.469-1.208"/>
			</g>
			<g id="g3019" transform="translate(57.28,21.938)">
				<path id="path3021" fill="#ADB7C0" d="M-44.883,22.524c-0.176-0.11-0.36-0.205-0.554-0.285c-0.26-0.105-0.508-0.16-0.735-0.16
					c-0.349,0-0.619,0.049-0.8,0.155c-0.183,0.1-0.279,0.274-0.276,0.525c0,0.287,0.067,0.512,0.205,0.688
					c0.139,0.169,0.344,0.305,0.601,0.406c0.254,0.087,0.569,0.157,0.929,0.207c0.321,0.041,0.958,0.115,1.039,0.115
					c0.081,0,0.134,0.046,0.098-0.172c-0.016-0.093-0.2-0.847-0.284-1.189C-44.685,22.713-44.821,22.563-44.883,22.524z
					 M-42.391,27.816c-0.534,0.299-1.37,0.449-2.516,0.449c-0.567,0-1.136-0.045-1.707-0.134c-0.421-0.064-0.462-0.074-0.724-0.131
					c-0.535-0.117-0.617-0.653-0.617-0.653l-0.172-0.708c-0.098-0.452,0.16-0.434,0.275-0.399c0.234,0.071,0.361,0.14,0.838,0.249
					c0.456,0.103,0.938,0.18,1.322,0.177c0.564,0,0.993-0.062,1.278-0.181c0.286-0.124,0.427-0.337,0.427-0.64
					c0.001-0.072,0.002-0.14-0.022-0.199c-0.024-0.056-0.07-0.109-0.205-0.128c-0.804-0.048-1.382-0.121-2.078-0.223
					c-0.687-0.097-1.287-0.262-1.789-0.491c-0.535-0.237-0.935-0.556-1.211-0.959c-0.27-0.403-0.405-0.894-0.405-1.469
					c0-0.546,0.197-0.991,0.575-1.336c0.384-0.34,0.882-0.51,1.486-0.51c0.378,0.004,0.673,0.031,0.884,0.083
					c0.21,0.054,0.439,0.128,0.679,0.233c0.181,0.075,0.375,0.185,0.581,0.321c0.205,0.137,0.348,0.234,0.531,0.354l0.007-0.012
					l-0.051-0.226c-0.002-0.002-0.004-0.004-0.004-0.006l0.001-0.004c-0.058-0.274,0.105-0.501,0.376-0.527l0.003-0.006h0.024
					l0.001-0.001c0.18,0,0.797,0.001,1.084,0.001h0.201c0.014,0,0.016,0.004,0.02,0.007c0.277,0.034,0.541,0.26,0.604,0.529
					l1.03,4.441c0.023,0.104,0.043,0.225,0.053,0.363c0.014,0.141,0.028,0.256,0.024,0.339
					C-41.587,27.053-41.857,27.517-42.391,27.816"/>
			</g>
			<g id="g3023" transform="translate(196.3,54.997)">
				<path id="path3025" fill="#ADB7C0" d="M-150.964-2.703h-1.26c-0.001,0-0.002,0-0.002,0l0,0c-0.289,0-0.581-0.221-0.663-0.502
					c-0.004-0.011-0.01-0.022-0.012-0.034c0,0-0.03-0.137-0.082-0.374l-1.732-7.85c-0.041-0.177-0.067-0.293-0.075-0.323
					l0.003-0.004c-0.059-0.274,0.105-0.501,0.376-0.527l0.004-0.005h1.308c0.286,0,0.578,0.219,0.663,0.497
					c0.003,0.013,0.01,0.026,0.014,0.039l1.888,8.548l-0.001,0.001C-150.473-2.945-150.661-2.703-150.964-2.703"/>
			</g>
			<g id="g3027" transform="translate(206.375,47.652)">
				<path id="path3029" fill="#ADB7C0" d="M-158.65,2.902c-0.044-0.011-0.09-0.021-0.141-0.028
					c-0.051-0.007-0.098-0.011-0.137-0.011c-0.141,0-0.248,0.038-0.32,0.113c-0.073,0.076-0.11,0.196-0.11,0.362v0.729h-0.155v0.194
					h0.155v0.394h0.231V4.262h0.477V4.067h-0.477V3.442c0-0.072,0.002-0.128,0.005-0.169c0.004-0.041,0.015-0.079,0.034-0.114
					c0.017-0.033,0.043-0.056,0.074-0.072c0.032-0.015,0.08-0.023,0.144-0.023c0.038,0,0.078,0.006,0.119,0.017
					c0.041,0.011,0.071,0.02,0.088,0.027h0.013V2.902"/>
			</g>
			<g id="g3031" transform="translate(216,47.601)">
				<path id="path3033" fill="#ADB7C0" d="M-165.996,2.941h-0.23v0.781c0,0.058-0.003,0.116-0.009,0.171
					c-0.005,0.055-0.017,0.098-0.034,0.131c-0.019,0.035-0.046,0.062-0.081,0.08c-0.036,0.018-0.086,0.027-0.152,0.027
					c-0.066,0-0.128-0.016-0.195-0.048c-0.065-0.033-0.129-0.074-0.194-0.123c0.004-0.019,0.004-0.041,0.006-0.066
					c0.003-0.025,0.003-0.049,0.003-0.074V2.941h-0.23v0.781c0,0.061-0.004,0.118-0.009,0.173c-0.005,0.054-0.016,0.098-0.034,0.13
					c-0.019,0.035-0.046,0.062-0.082,0.079c-0.034,0.017-0.086,0.026-0.152,0.026c-0.062,0-0.125-0.015-0.189-0.047
					c-0.063-0.031-0.128-0.071-0.19-0.119V2.941h-0.231v1.371h0.231V4.16c0.072,0.06,0.143,0.107,0.215,0.14
					c0.072,0.033,0.148,0.05,0.229,0.05c0.093,0,0.172-0.019,0.237-0.058c0.065-0.04,0.114-0.094,0.145-0.164
					c0.094,0.078,0.179,0.136,0.256,0.17c0.077,0.035,0.159,0.052,0.247,0.052c0.15,0,0.262-0.045,0.333-0.136
					c0.071-0.092,0.107-0.219,0.107-0.383V2.941"/>
			</g>
		</g>
	</g>
	<g>
		<polygon fill-rule="evenodd" clip-rule="evenodd" fill="#ADB7C0" points="176.654,19.641 180.985,5.36 184.85,5.36 
			180.519,19.641 176.654,19.641 		"/>
		<path fill-rule="evenodd" clip-rule="evenodd" fill="#ADB7C0" d="M174.928,5.364l-3.477,6.054
			c-0.885,1.586-1.403,2.386-1.651,3.389h-0.053c0.062-1.271-0.116-2.83-0.133-3.711l-0.384-5.731h-6.506l-0.066,0.384
			c1.672,0,2.662,0.84,2.936,2.557l1.268,11.335h4.004l8.095-14.276H174.928L174.928,5.364z"/>
		<path fill-rule="evenodd" clip-rule="evenodd" fill="#ADB7C0" d="M204.98,19.641l-0.107-2.124l-4.825-0.003l-0.987,2.127h-4.195
			l7.607-14.253h5.15l1.287,14.253H204.98L204.98,19.641z M204.535,11.217c-0.042-1.056-0.078-2.488-0.007-3.355h-0.057
			c-0.235,0.709-1.246,2.838-1.69,3.885l-1.438,3.129h3.388L204.535,11.217L204.535,11.217z"/>
		<path fill-rule="evenodd" clip-rule="evenodd" fill="#ADB7C0" d="M188.907,20.047c-2.729,0-4.539-0.866-5.832-1.637l1.842-2.812
			c1.16,0.649,2.07,1.398,4.167,1.398c0.675,0,1.324-0.175,1.692-0.813c0.538-0.929-0.124-1.429-1.633-2.284l-0.746-0.484
			c-2.237-1.529-3.205-2.981-2.152-5.517c0.674-1.622,2.452-2.851,5.386-2.851c2.021,0,3.919,0.875,5.023,1.729l-2.115,2.482
			c-1.079-0.872-1.973-1.313-2.996-1.313c-0.815,0-1.435,0.315-1.649,0.739c-0.402,0.798,0.131,1.341,1.307,2.071l0.887,0.564
			c2.716,1.714,3.363,3.511,2.684,5.19C193.599,19.401,191.306,20.047,188.907,20.047L188.907,20.047z"/>
		<path fill-rule="evenodd" clip-rule="evenodd" fill="#ADB7C0" d="M209.967,7.569h-0.254V6.021h0.587
			c0.374,0,0.564,0.131,0.564,0.445c0,0.281-0.172,0.397-0.403,0.423l0.433,0.68h-0.288l-0.399-0.662h-0.239V7.569L209.967,7.569z
			 M210.25,6.69c0.191,0,0.36-0.019,0.36-0.243c0-0.187-0.185-0.209-0.337-0.209h-0.307V6.69H210.25L210.25,6.69z M210.244,8.167
			c-0.805,0-1.377-0.602-1.377-1.398c0-0.841,0.636-1.399,1.377-1.399c0.732,0,1.367,0.558,1.367,1.399
			C211.611,7.61,210.977,8.167,210.244,8.167L210.244,8.167z M210.244,5.613c-0.606,0-1.078,0.475-1.078,1.156
			c0,0.636,0.412,1.155,1.078,1.155c0.598,0,1.068-0.471,1.068-1.155C211.313,6.088,210.842,5.613,210.244,5.613L210.244,5.613z"/>
	</g>
	<g>
		<path fill-rule="evenodd" clip-rule="evenodd" fill="#ADB7C0" d="M135.875,12.5c0-6.903-5.597-12.5-12.5-12.5
			c-2.995,0-5.721,1.049-7.874,2.807c1.643,1.584,2.896,3.57,3.569,5.814h-1.039c-0.65-1.996-1.795-3.755-3.28-5.168
			c-1.477,1.41-2.609,3.176-3.259,5.162h-1.039c0.67-2.231,1.901-4.219,3.531-5.799C111.836,1.075,109.124,0,106.146,0
			c-6.904,0-12.5,5.597-12.5,12.5s5.596,12.5,12.5,12.5c2.979,0,5.69-1.075,7.839-2.813c-1.63-1.581-2.861-3.569-3.531-5.801h1.039
			c0.649,1.985,1.782,3.753,3.259,5.162c1.485-1.412,2.63-3.173,3.28-5.167h1.039c-0.674,2.243-1.927,4.229-3.569,5.814
			c2.153,1.756,4.879,2.805,7.874,2.805C130.278,25,135.875,19.403,135.875,12.5L135.875,12.5z"/>
		<path fill-rule="evenodd" clip-rule="evenodd" fill="#FFFFFF" d="M126.689,15.429l0.862-4.625h1.091l0.115,0.457
			c0.195-0.229,0.568-0.457,1.204-0.457l-0.342,1.205c-0.309,0-0.896-0.08-1.271,1.303l-0.391,2.118H126.689L126.689,15.429z"/>
		<path fill-rule="evenodd" clip-rule="evenodd" fill="#FFFFFF" d="M109.964,9.628h1.257l-0.258,1.226h0.678l-0.226,1h-0.646
			l-0.354,1.87c-0.064,0.355-0.031,0.678,0.693,0.564l-0.08,0.936c-0.275,0.178-0.645,0.226-0.936,0.226
			c-0.29,0-1.242-0.177-1-1.435L109.964,9.628L109.964,9.628z"/>
		<path fill-rule="evenodd" clip-rule="evenodd" fill="#FFFFFF" d="M115.413,13.369c0.146-0.742,0.484-2.581-1.724-2.581
			c-2.033,0-2.29,2.015-2.339,2.306c-0.049,0.29-0.081,2.337,2.096,2.337c0.532,0.017,1.306-0.047,1.612-0.209l0.193-0.951
			c-0.193,0.049-0.918,0.113-1.419,0.113c-0.5,0-1.306,0.031-1.161-1.016H115.413L115.413,13.369z"/>
		<path fill-rule="evenodd" clip-rule="evenodd" fill="#FFFFFF" d="M108.77,11.885l0.291-0.935
			c-0.596-0.226-1.064-0.177-1.242-0.177c-0.177,0-1.687-0.018-1.917,1.097c-0.179,0.854,0.134,1.208,0.435,1.338
			c0.483,0.21,0.758,0.404,1.016,0.532c0.319,0.159,0.261,0.693-0.161,0.693c-0.193,0-1.033,0.097-1.66-0.112l-0.179,0.951
			c0.581,0.16,1.048,0.16,1.484,0.16c0.306,0,1.806,0.081,2.015-1.306c0.103-0.677-0.193-0.983-0.435-1.128
			c-0.242-0.161-0.645-0.387-0.903-0.5c-0.258-0.112-0.452-0.548,0.017-0.676C107.818,11.788,108.416,11.788,108.77,11.885
			L108.77,11.885z"/>
		<polygon fill-rule="evenodd" clip-rule="evenodd" fill="#FFFFFF" points="100.611,15.432 101.66,9.853 99.596,9.853 98.064,13.24 
			97.822,9.853 95.806,9.853 94.727,15.432 95.984,15.432 96.758,11.401 97.096,15.432 98.29,15.432 100.047,11.498 99.306,15.432 
			100.611,15.432 		"/>
		<path fill-rule="evenodd" clip-rule="evenodd" fill="#FFFFFF" d="M101.997,10.934l-0.192,1c0.308-0.032,1.129-0.161,1.564-0.146
			c0.435,0.016,0.918-0.047,0.774,0.645c-0.324,0.033-2.581-0.322-2.935,1.612c-0.146,0.953,0.676,1.436,1.32,1.403
			c0.646-0.032,0.823-0.112,1.05-0.273l0.161,0.257h1.177l0.499-2.514c0.13-0.629,0.339-2.146-1.773-2.146
			C103.256,10.789,102.82,10.772,101.997,10.934L101.997,10.934z"/>
		<path fill-rule="evenodd" clip-rule="evenodd" fill="#FFFFFF" d="M122.378,11.144c-0.322-0.194-0.547-0.226-0.967-0.226
			c-0.419,0-1.354,0.4-1.53,1.531c-0.21,1.339,0.708,2,1.999,1.565l0.37,1.128c-0.419,0.194-0.839,0.29-1.532,0.29
			c-1.306,0-2.725-1.16-2.08-3.514c0.477-1.735,1.968-2.371,2.838-2.339c1.032,0.039,1.403,0.387,1.726,0.742L122.378,11.144
			L122.378,11.144z"/>
		<path fill-rule="evenodd" clip-rule="evenodd" fill="#FFFFFF" d="M133.101,11.337c-0.241-0.177-0.386-0.548-0.982-0.548
			c-0.693,0-1.773-0.128-2.387,1.968c-0.41,1.4,0.42,2.675,1.322,2.675c0.419-0.016,0.839-0.192,1.096-0.371l0.163,0.371h1.354
			l1.096-5.869h-1.321L133.101,11.337L133.101,11.337z"/>
		<path fill-rule="evenodd" clip-rule="evenodd" fill="#FFFFFF" d="M123.281,10.934l-0.192,1c0.306-0.032,1.128-0.161,1.563-0.146
			c0.436,0.016,0.919-0.047,0.773,0.645c-0.322,0.033-2.579-0.322-2.935,1.612c-0.145,0.953,0.678,1.436,1.322,1.403
			s0.823-0.112,1.048-0.273l0.162,0.257h1.177l0.499-2.514c0.13-0.629,0.34-2.146-1.772-2.146
			C124.539,10.789,124.105,10.772,123.281,10.934L123.281,10.934z"/>
		<path fill-rule="evenodd" clip-rule="evenodd" fill="#ADB7C0" d="M112.753,12.53h1.563c0.081-0.451-0.063-0.838-0.563-0.838
			C113.252,11.692,112.898,11.949,112.753,12.53L112.753,12.53z"/>
		<path fill-rule="evenodd" clip-rule="evenodd" fill="#ADB7C0" d="M103.934,13.369c-0.21-0.033-0.678-0.162-1.081,0.112
			c-0.403,0.273-0.516,0.757-0.096,0.919c0.402,0.155,0.998-0.112,1.079-0.532L103.934,13.369L103.934,13.369z"/>
		<path fill-rule="evenodd" clip-rule="evenodd" fill="#ADB7C0" d="M132.649,13.223c0.129-0.419,0.06-0.942-0.081-1.128
			c-0.386-0.517-1.275-0.107-1.548,0.903c-0.176,0.66,0.21,1.161,0.646,1.161C132.134,14.159,132.425,13.788,132.649,13.223
			L132.649,13.223z"/>
		<path fill-rule="evenodd" clip-rule="evenodd" fill="#ADB7C0" d="M125.218,13.369c-0.21-0.033-0.679-0.162-1.082,0.112
			c-0.402,0.273-0.515,0.757-0.095,0.919c0.402,0.155,0.998-0.112,1.079-0.532L125.218,13.369L125.218,13.369z"/>
		<path fill-rule="evenodd" clip-rule="evenodd" fill="#FFFFFF" d="M115.449,15.432l0.854-4.578h1.08l0.114,0.451
			c0.192-0.226,0.563-0.451,1.192-0.451l-0.323,1.209c-0.306,0-0.902-0.098-1.272,1.273l-0.388,2.096H115.449L115.449,15.432z"/>
	</g>
</g>
</svg>
