<?xml version="1.0" encoding="utf-8"?>
<!-- Generator: Adobe Illustrator 15.1.0, SVG Export Plug-In . SVG Version: 6.00 Build 0)  -->
<!DOCTYPE svg PUBLIC "-//W3C//DTD SVG 1.1//EN" "http://www.w3.org/Graphics/SVG/1.1/DTD/svg11.dtd">
<svg version="1.1" id="Ebene_1" xmlns="http://www.w3.org/2000/svg" xmlns:xlink="http://www.w3.org/1999/xlink" x="0px" y="0px"
	 width="64px" height="64px" viewBox="0 0 64 64" enable-background="new 0 0 64 64" xml:space="preserve">
<g>
	<circle fill="#F05722" cx="32" cy="32" r="32"/>
	<g>
		<g>
			<path fill="#43459D" d="M40.416,39.411c0.036,1.008,0,2.052-0.036,3.023c-2.592,0-5.615,0-8.063,0
				c-2.376,0-4.967,0.036-7.991,0.036c0-0.972,0-2.016,0.036-3.023l5.075-0.108c0.108,0,0.18-0.107,0.18-0.216
				c0-4.571,0-9.935,0-13.75c-1.728,0.216-3.384,0.468-5.543,0.756c-0.18-0.973-0.36-2.016-0.504-2.988
				c3.78-1.044,11.554-3.923,11.915-3.923c0.072,0,0.108,0.036,0.108,0.18c0,5.688-0.072,13.57-0.108,19.941L40.416,39.411z"/>
		</g>
	</g>
</g>
</svg>
