<?xml version="1.0" encoding="utf-8"?>
<!-- Generator: Adobe Illustrator 15.1.0, SVG Export Plug-In . SVG Version: 6.00 Build 0)  -->
<!DOCTYPE svg PUBLIC "-//W3C//DTD SVG 1.1//EN" "http://www.w3.org/Graphics/SVG/1.1/DTD/svg11.dtd">
<svg version="1.1" id="Ebene_1" xmlns="http://www.w3.org/2000/svg" xmlns:xlink="http://www.w3.org/1999/xlink" x="0px" y="0px"
	 width="64px" height="64px" viewBox="0 0 64 64" enable-background="new 0 0 64 64" xml:space="preserve">
<g>
	<circle fill="#E5E5E5" cx="32" cy="32" r="32"/>
	<g>
		<path fill="#F4B400" d="M31.489,40.405c0.035,1.008,0,2.052-0.036,3.023c-2.592,0-5.615,0-8.063,0
			c-2.375,0-4.967,0.036-7.99,0.036c0-0.972,0-2.016,0.035-3.023l5.076-0.108c0.107,0,0.18-0.107,0.18-0.216
			c0-4.571,0-9.935,0-13.75c-1.729,0.216-3.384,0.468-5.543,0.756c-0.18-0.973-0.36-2.016-0.504-2.988
			c3.779-1.044,11.555-3.923,11.914-3.923c0.072,0,0.107,0.036,0.107,0.18c0,5.688-0.071,13.57-0.107,19.941L31.489,40.405z"/>
		<path fill="#F4B400" d="M47.041,41.845c-1.476,1.368-3.348,1.944-5.615,1.944c-2.052,0-3.779-0.648-5.003-1.729
			c-1.872-1.655-3.348-3.923-3.348-9.034c0-5.472,1.476-8.604,3.527-10.583c1.656-1.584,3.6-2.231,5.795-2.231
			c2.484,0,4.14,0.827,5.328,2.088c1.403,1.476,2.915,4.283,2.915,9.61C50.641,36.77,49.093,39.865,47.041,41.845z M40.454,24.027
			c-0.648,0.936-1.116,4.859-1.116,8.566c0,3.6,0.396,6.371,0.864,7.235c0.432,0.792,0.936,1.152,1.619,1.152
			c0.648,0,1.116-0.217,1.584-0.937c0.648-0.972,0.973-3.527,0.973-7.307c0-4.248-0.324-7.596-0.864-8.495
			c-0.396-0.756-0.792-1.188-1.548-1.188C41.282,23.056,40.922,23.308,40.454,24.027z"/>
	</g>
</g>
</svg>
