<?xml version="1.0" encoding="utf-8"?>
<!-- Generator: Adobe Illustrator 15.1.0, SVG Export Plug-In . SVG Version: 6.00 Build 0)  -->
<!DOCTYPE svg PUBLIC "-//W3C//DTD SVG 1.1//EN" "http://www.w3.org/Graphics/SVG/1.1/DTD/svg11.dtd">
<svg version="1.1" id="Ebene_1" xmlns="http://www.w3.org/2000/svg" xmlns:xlink="http://www.w3.org/1999/xlink" x="0px" y="0px"
	 width="64px" height="64px" viewBox="0 0 64 64" enable-background="new 0 0 64 64" xml:space="preserve">
<g>
	<circle fill="#E5E5E5" cx="32" cy="32" r="32"/>
	<g>
		<g>
			<path fill="#43459D" d="M33.35,36.693c-1.008,0.828-1.765,1.332-2.7,1.98v0.145c2.483-0.037,7.774-0.289,10.007-0.324
				l0.107,0.072c0,1.402-0.107,2.951-0.252,4.283c-1.691,0-9.07-0.037-11.734-0.037c-2.052,0-3.707,0-4.571,0
				c-0.36-0.971-0.72-2.123-0.972-3.131c2.447-1.801,3.815-2.881,5.363-4.32c2.987-2.699,5.58-5.326,5.58-8.494
				c0-1.225-0.289-2.016-0.828-2.771c-0.469-0.611-1.297-1.008-2.196-1.008c-1.08,0-1.907,0.287-2.411,0.611
				c-0.108,0.107-0.145,0.18-0.181,0.359l-0.827,3.6c-1.261,0-2.557-0.324-3.708-0.395c0.108-2.16,0.252-4.32,0.396-6.443
				c1.691-0.721,4.607-1.225,7.02-1.225c3.312,0,5.291,0.648,6.768,1.943c1.439,1.225,2.23,3.096,2.23,4.969
				C40.439,31.15,35.904,34.715,33.35,36.693z"/>
		</g>
	</g>
</g>
</svg>
