<?xml version="1.0" encoding="utf-8"?>
<!-- Generator: Adobe Illustrator 15.1.0, SVG Export Plug-In . SVG Version: 6.00 Build 0)  -->
<!DOCTYPE svg PUBLIC "-//W3C//DTD SVG 1.1//EN" "http://www.w3.org/Graphics/SVG/1.1/DTD/svg11.dtd">
<svg version="1.1" id="Ebene_1" xmlns="http://www.w3.org/2000/svg" xmlns:xlink="http://www.w3.org/1999/xlink" x="0px" y="0px"
	 width="64px" height="64px" viewBox="0 0 64 64" enable-background="new 0 0 64 64" xml:space="preserve">
<g>
	<circle fill="#94D8E8" cx="32" cy="32" r="32"/>
	<g>
		<path fill="#F05722" d="M27.645,27.519c-1.188-0.107-2.448-0.216-3.6-0.396c0.072-1.908,0.144-3.888,0.288-5.76
			c1.728-0.684,4.355-1.151,7.127-1.151c2.699,0,4.68,0.323,6.191,1.331c1.224,0.828,2.34,2.269,2.34,4.032
			c0,2.699-2.017,4.535-4.896,5.327v0.216c3.707,0.684,5.435,3.096,5.435,5.436c0,2.592-1.367,4.14-3.023,5.363
			c-1.619,1.224-4.607,1.872-8.387,1.872c-1.368,0-3.42-0.072-4.896-0.396c-0.288-2.088-0.54-4.176-0.756-6.228
			c1.152-0.216,2.483-0.432,3.743-0.611l0.828,3.384c0.036,0.18,0.145,0.252,0.252,0.323c0.36,0.181,1.044,0.324,1.548,0.324
			c1.44,0,2.52-0.324,3.204-0.936c0.72-0.648,1.044-1.548,1.044-2.52c0-2.448-2.088-3.672-4.968-3.672c-0.324,0-1.8,0-2.016,0
			c-0.072-1.08-0.108-2.304-0.108-3.348c5.436-0.036,6.875-1.62,6.875-3.888c0-0.647-0.18-1.403-0.684-1.907
			c-0.684-0.756-1.548-0.864-2.592-0.864c-0.792,0-1.548,0.18-2.016,0.54c-0.107,0.072-0.144,0.144-0.18,0.288L27.645,27.519z"/>
	</g>
</g>
</svg>
