<?xml version="1.0" encoding="utf-8"?>
<!-- Generator: Adobe Illustrator 15.1.0, SVG Export Plug-In . SVG Version: 6.00 Build 0)  -->
<!DOCTYPE svg PUBLIC "-//W3C//DTD SVG 1.1//EN" "http://www.w3.org/Graphics/SVG/1.1/DTD/svg11.dtd">
<svg version="1.1" id="Ebene_1" xmlns="http://www.w3.org/2000/svg" xmlns:xlink="http://www.w3.org/1999/xlink" x="0px" y="0px"
	 width="64px" height="64px" viewBox="0 0 64 64" enable-background="new 0 0 64 64" xml:space="preserve">
<g>
	<circle fill="#E5E5E5" cx="32" cy="32" r="32"/>
	<g>
		<path fill="#4DBFD9" d="M39.063,40.693c0,0.936,0,1.872-0.036,2.844c-1.477,0-3.6,0-5.363,0c-1.692,0-3.672,0.036-5.615,0.036
			c0-0.936,0-1.944,0.035-2.844l3.204-0.108c0.072,0,0.144-0.107,0.144-0.18c0-0.936,0-1.836,0-2.699
			c-1.044,0-7.559,0.036-8.603,0.036c-0.54-1.188-1.008-2.521-1.404-3.744c1.368-2.016,2.88-4.104,4.68-6.515
			c2.448-3.24,4.104-5.399,5.508-7.092c1.835,0,3.743,0.072,5.471,0.181c0,3.779-0.107,9.07-0.107,13.462c1.115,0,2.879,0,3.6-0.036
			c-0.036,1.116-0.072,2.376-0.145,3.491c-0.576,0-2.844,0-3.455,0c0,0.973,0,2.124-0.036,3.096L39.063,40.693z M31.288,26.115
			c-1.008,1.332-1.548,2.231-2.7,3.924c-0.972,1.476-1.476,2.195-2.447,3.779c-0.072,0.108-0.036,0.252,0.072,0.252
			c1.584,0.036,4.211,0.036,5.219,0.036l0.036-7.991H31.288z"/>
	</g>
</g>
</svg>
