<?xml version="1.0" encoding="utf-8"?>
<!-- Generator: Adobe Illustrator 15.1.0, SVG Export Plug-In . SVG Version: 6.00 Build 0)  -->
<!DOCTYPE svg PUBLIC "-//W3C//DTD SVG 1.1//EN" "http://www.w3.org/Graphics/SVG/1.1/DTD/svg11.dtd">
<svg version="1.1" id="Ebene_1" xmlns="http://www.w3.org/2000/svg" xmlns:xlink="http://www.w3.org/1999/xlink" x="0px" y="0px"
	 width="64px" height="64px" viewBox="0 0 64 64" enable-background="new 0 0 64 64" xml:space="preserve">
<g>
	<circle fill="#43459D" cx="32" cy="32" r="32"/>
	<g>
		<path fill="#F05722" d="M36.914,40.454c-1.907,1.296-4.536,1.98-7.667,1.98c-1.872,0-3.564-0.108-4.716-0.324
			c-0.288-1.979-0.54-4.031-0.792-6.012c1.152-0.252,2.412-0.504,3.6-0.647l0.9,3.239c0.035,0.181,0.144,0.288,0.287,0.36
			c0.469,0.252,0.9,0.288,1.369,0.288c1.26,0,2.23-0.216,3.059-0.973c0.792-0.684,1.225-1.728,1.225-3.095
			c0-2.628-2.124-3.996-5.508-3.996c-1.404,0-2.771,0.072-3.492,0.145l-0.684-0.685c0.289-3.203,0.936-7.99,1.439-11.482
			c1.369,0,4.572,0.036,6.84,0.036c2.447,0,4.355-0.036,7.02-0.036c0,1.332-0.108,3.06-0.252,4.464
			c-4.176-0.036-7.955-0.072-10.043-0.108c-0.18,1.008-0.432,2.196-0.648,3.492c0.612-0.108,1.549-0.108,2.628-0.108
			c5.579,0,8.783,3.023,8.783,6.803C40.262,36.819,38.786,39.194,36.914,40.454z"/>
	</g>
</g>
</svg>
