<?xml version="1.0" encoding="utf-8"?>
<!-- Generator: Adobe Illustrator 15.1.0, SVG Export Plug-In . SVG Version: 6.00 Build 0)  -->
<!DOCTYPE svg PUBLIC "-//W3C//DTD SVG 1.1//EN" "http://www.w3.org/Graphics/SVG/1.1/DTD/svg11.dtd">
<svg version="1.1" id="Ebene_1" xmlns="http://www.w3.org/2000/svg" xmlns:xlink="http://www.w3.org/1999/xlink" x="0px" y="0px"
	 width="64px" height="64px" viewBox="0 0 64 64" enable-background="new 0 0 64 64" xml:space="preserve">
<g>
	<circle fill="#F4B400" cx="32" cy="32" r="32"/>
	<g>
		<path fill="#FFFFFF" d="M29.29,30.183c0.72-0.396,2.663-1.188,4.464-1.188c2.231,0,3.743,0.828,4.607,1.656
			c1.188,1.151,2.088,3.132,2.088,4.68c0,2.771-0.793,4.571-2.809,6.515c-1.367,1.332-3.779,1.944-5.867,1.944
			c-2.16,0-4.139-0.54-5.436-1.656c-1.727-1.403-3.383-3.636-3.383-8.027c0-5.291,1.656-8.53,3.203-10.366
			c2.016-2.376,4.824-3.527,8.387-3.527c1.368,0,2.34,0.071,3.492,0.359c0.252,1.872,0.504,3.78,0.684,5.651
			c-1.08,0.252-2.34,0.468-3.527,0.648L34.438,24.1c-0.036-0.181-0.107-0.324-0.217-0.36c-0.215-0.145-0.684-0.252-1.188-0.252
			c-0.972,0-1.943,0.504-2.555,1.512c-0.973,1.62-1.297,3.815-1.369,5.184H29.29z M33.861,40.009
			c0.611-0.936,0.648-2.087,0.648-3.348c0-1.331-0.469-2.771-1.08-3.491c-0.396-0.468-0.936-0.684-1.548-0.684
			c-0.937,0-2.196,0.54-2.663,1.332c-0.109,3.131,0.432,4.967,0.898,5.831c0.469,0.828,1.08,1.367,1.98,1.367
			C32.709,41.017,33.43,40.693,33.861,40.009z"/>
	</g>
</g>
</svg>
