<?xml version="1.0" encoding="utf-8"?>
<!-- Generator: Adobe Illustrator 15.1.0, SVG Export Plug-In . SVG Version: 6.00 Build 0)  -->
<!DOCTYPE svg PUBLIC "-//W3C//DTD SVG 1.1//EN" "http://www.w3.org/Graphics/SVG/1.1/DTD/svg11.dtd">
<svg version="1.1" id="Ebene_1" xmlns="http://www.w3.org/2000/svg" xmlns:xlink="http://www.w3.org/1999/xlink" x="0px" y="0px"
	 width="64px" height="64px" viewBox="0 0 64 64" enable-background="new 0 0 64 64" xml:space="preserve">
<g>
	<circle fill="#E5E5E5" cx="32" cy="32" r="32"/>
	<g>
		<path fill="#3D99DE" d="M35.186,25.18c-5.436,0-6.48-0.072-7.523,0.144c-0.288,0.036-0.54,0.324-0.684,0.685l-0.864,2.735
			c-1.188-0.144-2.448-0.396-3.563-0.647c0.324-2.521,0.756-5.076,1.151-7.596c0.288,0,2.269,0.072,3.456,0.072h12.238
			c0.468,1.188,0.863,2.808,1.152,4.067c-4.104,6.191-6.588,10.979-7.379,14.219c-0.289,1.224-0.253,3.6-0.253,4.391
			c-1.224,0.217-4.896,0.252-5.903,0.252c-0.072-2.556,0.18-3.779,0.576-4.751c1.08-2.699,4.428-8.315,7.596-13.391V25.18z"/>
	</g>
</g>
</svg>
