<?xml version="1.0" encoding="utf-8"?>
<!-- Generator: Adobe Illustrator 15.1.0, SVG Export Plug-In . SVG Version: 6.00 Build 0)  -->
<!DOCTYPE svg PUBLIC "-//W3C//DTD SVG 1.1//EN" "http://www.w3.org/Graphics/SVG/1.1/DTD/svg11.dtd">
<svg version="1.1" id="Ebene_1" xmlns="http://www.w3.org/2000/svg" xmlns:xlink="http://www.w3.org/1999/xlink" x="0px" y="0px"
	 width="64px" height="64px" viewBox="0 0 64 64" enable-background="new 0 0 64 64" xml:space="preserve">
<g>
	<circle fill="#444444" cx="32" cy="32" r="32"/>
	<g>
		<path fill="#FFFFFF" d="M36.527,30.758c2.736,1.44,4.393,3.528,4.393,5.832c0,2.447-1.008,4.067-2.88,5.507
			c-1.62,1.188-3.852,1.692-6.479,1.692c-2.556,0-4.463-0.469-5.795-1.332c-1.404-0.9-2.52-2.231-2.52-4.355
			c0-2.7,2.088-4.607,4.463-5.903v-0.18c-2.123-1.225-3.455-2.88-3.455-5.436c0-2.196,1.403-3.924,2.663-4.787
			c1.44-0.973,3.491-1.584,5.724-1.584c2.304,0,4.139,0.468,5.399,1.476c0.899,0.684,1.943,2.052,1.943,3.852
			c0,2.483-1.691,4.031-3.456,5.075V30.758z M30.66,33.638c-1.115,1.08-1.583,2.628-1.583,3.744c0,1.224,0.323,1.943,0.684,2.447
			c0.468,0.72,1.62,1.152,2.411,1.152c0.828,0,1.656-0.252,2.196-0.864c0.504-0.576,0.792-1.332,0.792-2.304
			C35.16,36.193,33.756,34.897,30.66,33.638z M33.504,29.318c1.008-1.008,1.368-1.979,1.368-3.348c0-0.756-0.252-1.548-0.612-2.016
			c-0.432-0.612-1.151-0.899-1.907-0.899c-0.72,0-1.26,0.107-1.8,0.575c-0.54,0.504-0.9,1.332-0.9,2.232
			C29.652,27.339,30.877,28.238,33.504,29.318z"/>
	</g>
</g>
</svg>
