<?xml version="1.0" encoding="utf-8"?>
<!-- Generator: Adobe Illustrator 15.1.0, SVG Export Plug-In . SVG Version: 6.00 Build 0)  -->
<!DOCTYPE svg PUBLIC "-//W3C//DTD SVG 1.1//EN" "http://www.w3.org/Graphics/SVG/1.1/DTD/svg11.dtd">
<svg version="1.1" id="Ebene_1" xmlns="http://www.w3.org/2000/svg" xmlns:xlink="http://www.w3.org/1999/xlink" x="0px" y="0px"
	 width="1730px" height="500px" viewBox="0 0 1730 500" enable-background="new 0 0 1730 500" xml:space="preserve">
<g id="Ebene_2" display="none">
	
		<image display="inline" overflow="visible" enable-background="new    " width="1104" height="356" xlink:href="B49E131C.png"  transform="matrix(1.2826 0 0 1.2826 -25.001 60.2764)">
	</image>
</g>
<polyline fill="none" stroke="#F05722" stroke-width="8" stroke-miterlimit="10" points="6.828,446.426 182,365.391 353,426.667 
	507.875,258 677.999,385.839 712,448 "/>
<polyline fill="none" stroke="#4DBFD9" stroke-width="8" stroke-miterlimit="10" points="6.012,446.426 181.063,284.355 
	352.328,416.54 497.5,414.241 667.521,418.839 835.432,426.885 1007.846,437.229 1174.512,431.482 1348.523,441.667 
	1522.535,441.667 1707.023,441.667 "/>
<circle fill="#4DBFD9" cx="7" cy="446.667" r="10"/>
<circle fill="#F05722" cx="182" cy="365.667" r="10"/>
<circle fill="#F05722" cx="353" cy="423.667" r="10"/>
<circle fill="#F05722" cx="508" cy="257.667" r="10"/>
<circle fill="#F05722" cx="678" cy="385.667" r="10"/>
<circle fill="#F05722" cx="711" cy="445.667" r="10"/>
<g>
	<polyline fill="none" stroke="#F4B400" stroke-width="8" stroke-miterlimit="10" points="6.828,274.426 181.54,306.525 
		352.805,339.525 507.977,322.667 678,329 846,322.667 1019,336 1185,317 1359,330 1558.5,329.667 1707.023,329.667 	"/>
	<circle fill="#F4B400" cx="7" cy="274.667" r="10"/>
	<circle fill="#F4B400" cx="353" cy="338.667" r="10"/>
	<circle fill="#F4B400" cx="508" cy="322.667" r="10"/>
	<circle fill="#F4B400" cx="678" cy="328.667" r="10"/>
	<circle fill="#F4B400" cx="846" cy="322.667" r="10"/>
	<circle fill="#F4B400" cx="1019" cy="335.667" r="10"/>
	<circle fill="#F4B400" cx="1185" cy="316.667" r="10"/>
	<circle fill="#F4B400" cx="1359" cy="329.667" r="10"/>
	<circle fill="#F4B400" cx="182" cy="306.667" r="10"/>
</g>
<circle fill="#4DBFD9" cx="182" cy="284.667" r="10"/>
<circle fill="#4DBFD9" cx="353" cy="416.667" r="10"/>
<circle fill="#4DBFD9" cx="508" cy="414.667" r="10"/>
<circle fill="#4DBFD9" cx="678" cy="418.667" r="10"/>
<circle fill="#4DBFD9" cx="846" cy="426.667" r="10"/>
<circle fill="#4DBFD9" cx="1019" cy="436.667" r="10"/>
<circle fill="#4DBFD9" cx="1185" cy="431.667" r="10"/>
<circle fill="#4DBFD9" cx="1359" cy="441.667" r="10"/>
<circle fill="#4DBFD9" cx="1523" cy="441.667" r="10"/>
<circle fill="#4DBFD9" cx="1707.023" cy="441.667" r="10"/>
<circle fill="#F4B400" cx="1523" cy="329.667" r="10"/>
<circle fill="#F4B400" cx="1707.023" cy="329.667" r="10"/>
<rect x="180" y="466.667" fill="none" width="171" height="36"/>
<text transform="matrix(1 0 0 1 170 478.0264)" fill="#C1C1C1" font-family="'MyriadPro-Semibold'" font-size="16">JAN</text>
<rect x="192.25" y="231" fill="none" width="133.5" height="36"/>
<text transform="matrix(1 0 0 1 193.9316 265.2002)" fill="#4DBFD9" font-family="'MyriadPro-Bold'" font-size="20">65k Hits in Jan</text>
<rect x="351" y="466.667" fill="none" width="171" height="36"/>
<text transform="matrix(1 0 0 1 341 478.0264)" fill="#C1C1C1" font-family="'MyriadPro-Semibold'" font-size="16">FEB</text>
<rect x="505" y="466.667" fill="none" width="171" height="36"/>
<text transform="matrix(1 0 0 1 491 478.0264)" fill="#C1C1C1" font-family="'MyriadPro-Semibold'" font-size="16">MAR</text>
<rect x="675" y="466.667" fill="none" width="171" height="36"/>
<text transform="matrix(1 0 0 1 664 478.0264)" fill="#C1C1C1" font-family="'MyriadPro-Semibold'" font-size="16">APR</text>
<rect x="844" y="466.667" fill="none" width="171" height="36"/>
<text transform="matrix(1 0 0 1 832 478.0264)" fill="#C1C1C1" font-family="'MyriadPro-Semibold'" font-size="16">JUN</text>
<rect x="1016" y="466.667" fill="none" width="171" height="36"/>
<text transform="matrix(1 0 0 1 1006 478.0264)" fill="#C1C1C1" font-family="'MyriadPro-Semibold'" font-size="16">JUL</text>
<rect x="1182" y="466.667" fill="none" width="171" height="36"/>
<text transform="matrix(1 0 0 1 1169 478.0264)" fill="#C1C1C1" font-family="'MyriadPro-Semibold'" font-size="16">AUG</text>
<text transform="matrix(1 0 0 1 1347 478.0264)" fill="#C1C1C1" font-family="'MyriadPro-Semibold'" font-size="16">SEP</text>
<text transform="matrix(1 0 0 1 1508 478.0264)" fill="#C1C1C1" font-family="'MyriadPro-Semibold'" font-size="16">OCT</text>
<text transform="matrix(1 0 0 1 1352.3867 302.2002)" fill="#F4B400" font-family="'MyriadPro-Bold'" font-size="20">68% avg New Users</text>
<rect x="714.391" y="366" fill="none" width="78.75" height="36"/>
<text transform="matrix(1 0 0 1 703.1963 388.2002)" fill="#F05722" font-family="'MyriadPro-Bold'" font-size="20">Sold Out</text>
</svg>
