<?xml version="1.0" encoding="utf-8"?>
<!-- Generator: Adobe Illustrator 15.1.0, SVG Export Plug-In . SVG Version: 6.00 Build 0)  -->
<!DOCTYPE svg PUBLIC "-//W3C//DTD SVG 1.1//EN" "http://www.w3.org/Graphics/SVG/1.1/DTD/svg11.dtd">
<svg version="1.1" id="Ebene_1" xmlns="http://www.w3.org/2000/svg" xmlns:xlink="http://www.w3.org/1999/xlink" x="0px" y="0px"
	 width="600px" height="100px" viewBox="0 0 600 100" enable-background="new 0 0 600 100" xml:space="preserve">
<g>
	<path fill="#818C97" d="M1.942,33.689c0.081,0,0.202-0.081,0.243-0.202c2.468-6.555,6.029-16.146,8.457-22.742
		c0.728-0.08,2.59-0.08,5.543-0.08c2.347,6.798,5.543,16.468,7.769,22.983l2.063,0.162c0,1.092,0,2.266-0.041,3.399
		c-1.335,0-3.318,0-4.855,0c-2.104,0-4.653,0-6.515,0c0-1.133,0-2.307,0.041-3.439l1.983-0.122c0.081,0,0.162-0.081,0.121-0.202
		c-0.202-0.607-0.566-1.902-0.809-2.509c-0.041-0.162-0.121-0.203-0.284-0.203l-7.485,0.081c-0.202,0.89-0.526,2.023-0.688,2.873
		l2.226,0.122c0,1.092,0,2.266-0.041,3.399c-1.618,0-3.723,0-5.706,0c-1.334,0-2.751,0-3.965,0c0-1.133,0.041-2.307,0.081-3.399
		L1.942,33.689z M11.977,18.191c-0.93,2.995-1.902,6.191-2.751,8.942c-0.041,0.162-0.041,0.243,0.082,0.243h5.665
		c-0.85-2.67-1.821-5.988-2.792-9.186H11.977z"/>
	<path fill="#818C97" d="M37.393,14.388c0-1.093,0.041-2.348,0.041-3.439c2.914-0.041,6.475-0.081,9.833-0.081
		c1.82,0,3.682,0,5.907,0.687c3.318,1.053,5.463,4.37,5.463,7.81c0,3.157-2.104,6.151-4.774,7.487
		c-1.862,0.971-4.694,1.294-5.666,1.294c-0.526,0-1.618,0-1.902-0.041l-0.041,5.625l3.682,0.122c0,1.052,0,2.306-0.041,3.358
		c-2.022,0-4.814,0-7.283,0c-1.7,0-3.601,0-5.139,0c0-1.052,0-2.307,0.041-3.358l1.902-0.122c0.121,0,0.161-0.081,0.161-0.162
		V14.469L37.393,14.388z M46.295,24.302c0,0.364,0.729,0.405,1.417,0.405c1.012,0,2.023-0.364,2.752-1.092
		c0.85-0.811,1.335-2.266,1.335-4.047c0-2.994-1.821-5.423-4.127-5.423c-0.606,0-1.133,0.041-1.295,0.122L46.295,24.302z"/>
	<path fill="#818C97" d="M62.925,35.672c-1.861-1.579-2.995-3.764-2.995-6.879c0-3.197,1.416-6.07,3.844-7.85
		c1.78-1.335,4.208-1.942,6.636-1.942c2.145,0,3.966,0.485,5.543,1.457c2.064,1.335,3.642,3.885,3.642,7.485
		c0,3.562-1.942,6.597-4.33,8.134c-1.578,1.011-3.602,1.538-5.908,1.538C66.971,37.614,64.543,37.047,62.925,35.672z M71.624,33.487
		c0.769-1.052,0.971-2.671,0.971-5.382c0-2.468-0.324-3.722-0.728-4.693c-0.445-0.85-1.173-1.254-1.902-1.254
		s-1.376,0.283-1.902,1.012c-0.647,0.971-1.052,2.509-1.052,4.977c0,2.995,0.364,4.371,0.931,5.22
		c0.526,0.809,1.133,1.092,1.862,1.092C70.491,34.458,71.138,34.256,71.624,33.487z"/>
	<path fill="#818C97" d="M93.445,19.001c1.457,0,3.521,0.404,4.492,0.971c0,1.254-1.254,4.086-2.063,4.531
		c-0.526-0.202-2.589-1.213-4.208-1.213c-0.89,0-1.659,0.284-2.266,1.254c-0.607,1.053-0.809,2.267-0.809,4.087
		c0,1.942,0.525,3.035,1.254,3.885c0.688,0.809,1.901,0.971,2.71,0.971c1.619,0,3.48-0.607,4.694-1.093
		c0.283,1.052,0.607,2.266,0.769,3.237c-2.63,1.416-5.827,1.982-7.486,1.982c-4.977,0-8.781-3.075-8.781-8.052
		C81.751,23.816,86.283,19.001,93.445,19.001z"/>
	<path fill="#818C97" d="M99.651,33.892l1.983-0.122c0.081,0,0.121-0.122,0.121-0.162c0-6.19,0.041-14.081,0.041-20.15l-2.589-0.082
		c0-1.092,0.041-2.306,0.041-3.358c2.266-0.283,8.74-1.133,9.144-1.133c0.081,0,0.122,0.041,0.122,0.161
		c0,4.693-0.082,10.682-0.122,16.995c0.688,0,1.417-0.041,2.145-0.122c0.688-0.606,1.74-1.618,2.793-2.873
		c0.081-0.081,0-0.122-0.081-0.122l-1.498-0.081c0-1.133,0-2.347,0.041-3.439c1.821,0,3.925,0,5.665,0
		c1.133-0.041,2.388-0.041,3.521-0.041c0,1.093-0.041,2.307-0.082,3.399l-1.457,0.122c-2.023,1.659-3.358,2.792-4.451,3.642v0.283
		c0.809,0.526,1.902,1.375,2.873,3.763c0.526,1.254,1.012,2.307,1.295,2.833c0.162,0.242,0.405,0.364,0.607,0.364l2.022,0.081
		c0,1.092,0,2.306-0.041,3.358c-1.497,0-7.526,0.081-8.051,0.081c-0.527-1.052-1.052-2.711-1.74-4.774
		c-0.607-1.821-1.376-3.279-2.023-3.279c-0.485,0-1.012,0-1.538,0c-0.04,1.295-0.04,3.238-0.081,4.533l1.498,0.122
		c0,1.092,0,2.266-0.041,3.318c-1.335,0-3.318,0-4.977,0c-1.659,0-3.561,0.041-5.22,0.041C99.57,36.157,99.61,34.943,99.651,33.892z
		"/>
	<path fill="#818C97" d="M133.195,19.001c2.508,0,4.411,0.89,5.503,2.145c1.295,1.538,2.063,3.642,2.063,6.231
		c-0.041,0.606-1.861,2.347-2.185,2.387c-1.052,0.122-5.22,0.122-8.821,0.122c0.081,1.335,0.566,2.104,1.093,2.63
		c0.931,0.89,1.982,0.971,3.035,0.971c1.74,0,4.37-0.648,5.705-1.133c0.284,1.052,0.607,2.347,0.769,3.358
		c-2.388,1.093-5.948,1.902-7.891,1.902c-5.382,0-9.469-2.63-9.469-8.336C122.998,23.533,127.125,19.001,133.195,19.001z
		 M130.484,23.452c-0.485,0.809-0.769,1.578-0.729,3.196c1.417,0,3.399-0.04,4.573-0.08c0.242,0,0.364-0.162,0.364-0.445
		c0-0.85-0.162-1.902-0.445-2.508c-0.364-0.729-0.971-1.215-1.821-1.215C131.738,22.399,131.05,22.562,130.484,23.452z"/>
	<path fill="#818C97" d="M146.393,36.4c-1.295-1.134-1.417-2.063-1.417-3.197c0-2.266,0.041-4.33,0.041-4.816
		c0-0.85,0.041-4.773,0.041-5.3c-0.688,0-1.821,0-2.832,0c0-1.134,0.04-2.347,0.121-3.439c0.85-0.081,1.821-0.162,2.63-0.243
		c0.162,0,0.284-0.121,0.284-0.323c0.121-1.053,0.202-2.387,0.324-3.358c2.023-1.012,5.907-2.145,6.029-2.145
		c0.081,0,0.122,0.041,0.122,0.161c-0.041,0.891-0.081,4.573-0.122,5.666c2.063,0,4.33,0,6.231-0.041
		c0,1.174-0.041,2.549-0.161,3.764c-1.7,0-4.209-0.041-6.07-0.041c0,0.364-0.041,1.173-0.041,3.399c0,1.659,0,3.237,0,5.058
		c0,1.132,0.971,1.821,1.861,1.821c1.619,0,3.156-0.283,4.41-0.607c0.203,1.093,0.365,2.347,0.445,3.399
		c-2.792,1.093-5.746,1.457-8.74,1.457C148.457,37.614,147.445,37.331,146.393,36.4z"/>
	<path fill="#818C97" d="M187.184,15.643c-0.041-0.203-0.081-0.364-0.243-0.445c-0.525-0.445-1.376-0.809-2.428-0.809
		c-1.295,0-2.833,0.364-4.208,1.618c-1.821,1.659-2.994,4.775-2.994,8.458c0,3.439,0.85,5.826,2.225,7.363
		c1.578,1.821,3.359,2.307,5.018,2.307c0.688,0,0.931-0.162,0.931-0.486v-5.503l-3.156-0.081c0-1.132,0.041-2.468,0.081-3.561
		c1.74,0,4.289,0,6.474,0c1.7,0,3.804,0,5.341,0c0,1.093,0,2.429-0.04,3.561l-1.7,0.081c-0.121,0.041-0.162,0.081-0.162,0.162
		l-0.121,7.85c-1.376,0.81-4.208,1.457-7.851,1.457c-4.572,0-7.89-1.012-10.196-2.792c-2.671-2.146-4.451-5.382-4.451-9.712
		c0-5.787,2.873-9.509,6.069-11.816c2.833-2.022,6.838-2.792,10.076-2.792c2.549,0,4.896,0.445,6.07,0.972
		c0.161,2.669,0.323,5.34,0.445,8.011c-1.376,0.162-2.873,0.323-4.33,0.445L187.184,15.643z"/>
	<path fill="#818C97" d="M217.944,36.846c-0.404,0.202-3.965,0.769-6.636,0.769c-0.607-0.445-1.174-1.052-1.862-2.023h-0.202
		c-3.318,1.901-4.087,2.023-5.705,2.023c-2.468,0-5.544-3.237-5.544-5.706c0-3.076,0.041-6.271,0.081-8.902l-1.821-0.081
		c0-1.092,0.041-2.267,0.081-3.318c1.659-0.081,7.647-0.244,8.174-0.284c0.081,0,0.121,0.082,0.121,0.163
		c0,2.832-0.121,6.393-0.121,9.347c0,1.174-0.041,2.59,0.485,3.48c0.485,0.769,1.052,0.809,1.578,0.809
		c0.688,0,1.659-0.283,2.427-0.85c0.041-2.751,0-6.797,0-9.225l-1.982-0.081c0.041-1.133,0.041-2.387,0.081-3.439
		c1.497-0.041,7.89-0.163,8.498-0.163c0.04,0,0.08,0.122,0.08,0.163c-0.041,4.289-0.121,9.145-0.121,13.798
		c0,0.162,0.041,0.242,0.161,0.242l2.266-0.08C217.985,34.539,217.944,35.793,217.944,36.846z"/>
	<path fill="#818C97" d="M219.489,23.533c0-1.093,0.041-2.347,0.081-3.439c2.185-0.162,8.74-1.093,9.064-1.093
		c0.081,0,0.081,0.041,0.081,0.122c-0.041,4.37-0.121,10.601-0.121,14.647l2.226,0.081c0,1.133,0,2.266,0,3.358
		c-1.538,0-3.845,0-5.584,0c-1.7,0-3.844,0.041-5.503,0.041c0-1.093,0-2.307,0.041-3.358l2.145-0.081
		c0.121-0.041,0.162-0.122,0.162-0.203v-9.955L219.489,23.533z M228.594,12.972c0,2.185-1.781,3.642-3.804,3.642
		c-1.739,0-3.52-1.498-3.52-3.561c0-1.699,1.497-3.358,3.723-3.358C227.339,9.694,228.594,11.272,228.594,12.972z"/>
	<path fill="#818C97" d="M244.983,35.793c-3.602,1.7-4.492,1.821-5.503,1.821c-1.538,0-3.237-0.486-4.734-1.942
		c-1.375-1.376-2.428-3.561-2.428-6.232c0-3.075,1.053-5.826,3.116-8.011c1.417-1.62,3.763-2.428,5.584-2.428
		c1.457,0,2.712,0.284,3.48,0.485l0.284-0.122c0-1.86-0.081-3.925-0.122-5.907l-3.035-0.122c-0.041-1.132,0-2.306,0.041-3.399
		c2.347-0.202,9.145-1.051,9.59-1.051c0.04,0,0.081,0.041,0.081,0.121c0,6.515-0.121,16.874-0.162,24.198
		c0,0.243,0.081,0.404,0.283,0.404l2.063-0.121c0,1.011,0.041,2.265,0,3.318c-0.526,0.242-4.046,0.809-6.757,0.809
		c-0.607-0.445-1.052-1.012-1.498-1.821H244.983z M244.7,23.493c-0.566-0.244-1.457-0.567-2.428-0.567
		c-0.769,0-1.578,0.283-2.022,1.052c-0.608,0.97-0.972,2.306-0.972,4.734c0,1.618,0.243,2.792,0.809,3.682
		c0.324,0.485,1.053,1.052,1.821,1.052c0.809,0,1.538-0.162,2.59-0.729c0.162-0.081,0.203-0.283,0.203-0.688
		C244.7,29.359,244.659,26.123,244.7,23.493z"/>
	<path fill="#818C97" d="M265.242,19.001c2.509,0,4.411,0.89,5.503,2.145c1.295,1.538,2.063,3.642,2.063,6.231
		c-0.041,0.606-1.861,2.347-2.185,2.387c-1.052,0.122-5.22,0.122-8.821,0.122c0.081,1.335,0.566,2.104,1.093,2.63
		c0.931,0.89,1.982,0.971,3.035,0.971c1.74,0,4.37-0.648,5.705-1.133c0.284,1.052,0.607,2.347,0.77,3.358
		c-2.388,1.093-5.949,1.902-7.891,1.902c-5.382,0-9.469-2.63-9.469-8.336C255.044,23.533,259.172,19.001,265.242,19.001z
		 M262.531,23.452c-0.486,0.809-0.77,1.578-0.729,3.196c1.417,0,3.399-0.04,4.573-0.08c0.243,0,0.364-0.162,0.364-0.445
		c0-0.85-0.162-1.902-0.445-2.508c-0.364-0.729-0.971-1.215-1.821-1.215C263.785,22.399,263.097,22.562,262.531,23.452z"/>
	<path fill="#818C97" d="M287.825,36.4c-1.295-1.134-1.416-2.063-1.416-3.197c0-2.266,0.041-4.33,0.041-4.816
		c0-0.85,0.04-4.773,0.04-5.3c-0.688,0-1.82,0-2.832,0c0-1.134,0.04-2.347,0.121-3.439c0.85-0.081,1.821-0.162,2.63-0.243
		c0.162,0,0.283-0.121,0.283-0.323c0.122-1.053,0.203-2.387,0.324-3.358c2.024-1.012,5.908-2.145,6.029-2.145
		c0.081,0,0.122,0.041,0.122,0.161c-0.041,0.891-0.08,4.573-0.122,5.666c2.064,0,4.331,0,6.232-0.041
		c0,1.174-0.041,2.549-0.162,3.764c-1.699,0-4.209-0.041-6.07-0.041c0,0.364-0.04,1.173-0.04,3.399c0,1.659,0,3.237,0,5.058
		c0,1.132,0.971,1.821,1.861,1.821c1.618,0,3.156-0.283,4.41-0.607c0.203,1.093,0.364,2.347,0.445,3.399
		c-2.792,1.093-5.746,1.457-8.741,1.457C289.888,37.614,288.876,37.331,287.825,36.4z"/>
	<path fill="#818C97" d="M304.053,35.672c-1.86-1.579-2.994-3.764-2.994-6.879c0-3.197,1.417-6.07,3.846-7.85
		c1.779-1.335,4.207-1.942,6.635-1.942c2.145,0,3.966,0.485,5.543,1.457c2.064,1.335,3.643,3.885,3.643,7.485
		c0,3.562-1.942,6.597-4.331,8.134c-1.577,1.011-3.601,1.538-5.906,1.538C308.101,37.614,305.672,37.047,304.053,35.672z
		 M312.752,33.487c0.77-1.052,0.972-2.671,0.972-5.382c0-2.468-0.323-3.722-0.729-4.693c-0.445-0.85-1.174-1.254-1.901-1.254
		c-0.729,0-1.376,0.283-1.9,1.012c-0.649,0.971-1.053,2.509-1.053,4.977c0,2.995,0.363,4.371,0.93,5.22
		c0.526,0.809,1.134,1.092,1.862,1.092C311.619,34.458,312.267,34.256,312.752,33.487z"/>
	<path fill="#818C97" d="M332.809,15.742c0-1.112,0.04-2.378,0.04-3.451c2.683,0,6.671,0,9.622,0
		c1.15,3.067,3.68,10.504,5.442,15.68h0.307c1.841-5.175,3.988-11.31,5.559-15.68c2.685,0,6.326,0,8.894,0
		c0,1.073-0.038,2.339-0.038,3.451l-1.916,0.114c-0.076,0-0.115,0.077-0.115,0.154c0.039,5.481,0.039,12.075,0.077,17.863
		l2.107,0.115c0,0.997,0,2.186-0.038,3.22c-1.266,0-3.142,0-4.561,0c-1.879,0-4.026,0-5.636,0c0-1.035,0.037-2.224,0.037-3.22
		l2.188-0.115c0.113,0,0.113-0.076,0.113-0.153c-0.038-4.025-0.077-8.281-0.153-12.919h-0.307
		c-2.338,6.671-4.332,11.348-5.902,14.989c-0.577,0-2.149,0.038-3.337,0.038c-1.764-4.178-3.489-8.702-5.75-15.525h-0.344
		c-0.078,4.754-0.191,9.086-0.269,13.532l2.683,0.153c0,0.997,0,2.186-0.038,3.22c-1.381,0-3.335,0-4.945,0c-1.419,0-2.645,0-3.91,0
		c0-1.035,0-2.224,0-3.22l1.993-0.115c0.076-0.038,0.116-0.076,0.116-0.153c0.037-5.482,0.113-12.459,0.19-17.865L332.809,15.742z"
		/>
	<path fill="#818C97" d="M375.06,35.906c-2.301,1.15-4.102,1.687-5.559,1.687c-2.031,0-4.983-2.032-4.983-4.447
		c0-2.146,2.53-5.789,8.625-5.789c0.843,0,1.457,0,1.84,0c0.115-1.917-0.574-3.028-2.299-3.028c-1.304,0-3.336,1.073-4.832,2.147
		c-0.729-0.844-1.417-1.802-2.032-2.759c2.761-2.224,5.636-3.758,9.278-3.758c2.953,0,5.864,2.492,5.864,5.75
		c0,2.53-0.038,6.134-0.075,7.782c0,0.23,0,0.307,0.19,0.307l2.032-0.115c0,0.996,0.04,2.146,0,3.143
		c-0.613,0.231-3.335,0.768-6.402,0.768c-0.384-0.345-0.881-0.959-1.456-1.687H375.06z M372.375,33.913
		c0.997,0,1.994-0.498,2.569-0.843c0.077-0.077,0.077-0.191,0.077-0.23c0-0.92,0-1.648,0-2.645c-0.23-0.038-0.537-0.038-0.806-0.038
		c-2.491,0-3.604,1.112-3.604,2.262C370.611,33.337,371.608,33.913,372.375,33.913z"/>
	<path fill="#818C97" d="M387.995,33.299c0.038,0.116,0.077,0.269,0.307,0.422c0.652,0.383,1.419,0.575,2.107,0.575
		c0.537,0,0.997,0,1.459-0.192c0.497-0.23,0.842-0.613,0.842-1.265c0-0.958-0.46-1.226-3.027-1.917
		c-3.45-0.958-5.138-2.683-5.138-5.098c0-2.262,1.688-3.987,3.297-4.754c1.227-0.614,2.951-1.112,5.482-1.112
		c2.07,0,3.909,0.23,4.6,0.537c0.191,1.687,0.384,3.412,0.499,5.099c-0.999,0.192-2.225,0.344-3.45,0.498l-0.575-1.994
		c-0.04-0.152-0.115-0.345-0.231-0.421c-0.459-0.306-1.034-0.422-1.532-0.422c-0.422,0-1.074,0.077-1.419,0.307
		c-0.382,0.23-0.69,0.614-0.69,1.304c0,0.843,0.613,1.073,3.564,1.878c2.762,0.768,4.679,1.841,4.679,4.907
		c0,2.147-1.304,3.949-3.373,4.983c-1.266,0.575-3.298,0.959-5.712,0.959c-1.803,0-3.757-0.231-5.061-0.614
		c-0.229-1.764-0.422-3.526-0.615-5.252c1.075-0.23,2.226-0.459,3.413-0.614L387.995,33.299z"/>
	<path fill="#818C97" d="M403.551,36.443c-1.229-1.074-1.344-1.956-1.344-3.029c0-2.146,0.038-4.102,0.038-4.562
		c0-0.805,0.04-4.524,0.04-5.022c-0.653,0-1.726,0-2.685,0c0-1.074,0.039-2.224,0.115-3.259c0.806-0.077,1.726-0.153,2.491-0.229
		c0.153,0,0.269-0.116,0.269-0.307c0.116-0.997,0.191-2.262,0.307-3.182c1.917-0.959,5.599-2.032,5.714-2.032
		c0.075,0,0.113,0.039,0.113,0.154c-0.038,0.843-0.077,4.332-0.113,5.367c1.954,0,4.1,0,5.902-0.039
		c0,1.112-0.038,2.415-0.153,3.565c-1.61,0-3.988-0.039-5.749-0.039c0,0.345-0.04,1.112-0.04,3.22c0,1.572,0,3.066,0,4.792
		c0,1.073,0.92,1.724,1.764,1.724c1.534,0,2.99-0.269,4.179-0.575c0.191,1.036,0.346,2.224,0.422,3.221
		c-2.645,1.035-5.444,1.38-8.28,1.38C405.505,37.593,404.546,37.325,403.551,36.443z"/>
	<path fill="#818C97" d="M425.061,19.958c2.378,0,4.18,0.843,5.214,2.032c1.228,1.456,1.954,3.45,1.954,5.903
		c-0.037,0.575-1.761,2.223-2.069,2.262c-0.997,0.114-4.945,0.114-8.356,0.114c0.076,1.266,0.535,1.994,1.035,2.492
		c0.882,0.844,1.879,0.921,2.875,0.921c1.648,0,4.14-0.614,5.405-1.074c0.269,0.997,0.575,2.224,0.729,3.182
		c-2.263,1.035-5.636,1.802-7.475,1.802c-5.099,0-8.972-2.492-8.972-7.897C415.4,24.253,419.312,19.958,425.061,19.958z
		 M422.493,24.176c-0.461,0.767-0.729,1.495-0.69,3.028c1.342,0,3.22-0.038,4.331-0.077c0.23,0,0.346-0.153,0.346-0.421
		c0-0.806-0.153-1.802-0.422-2.377c-0.345-0.689-0.919-1.15-1.726-1.15C423.682,23.179,423.029,23.332,422.493,24.176z"/>
	<path fill="#818C97" d="M433.754,34.104l1.802-0.076c0.115-0.039,0.153-0.077,0.153-0.154c0-3.104,0-6.67,0-9.66l-2.263-0.116
		c0-1.035,0.039-2.146,0.077-3.143c1.726-0.192,7.437-0.998,7.628-0.998c0.04,0,0.077,0,0.077,0.077
		c0.116,1.648,0.27,3.258,0.383,4.907l0.232,0.039c2.376-4.524,3.258-5.022,5.174-5.022c0.958,0,1.992,0.23,2.759,0.498
		c0,1.802-1.072,4.907-1.801,5.559c-0.345-0.077-1.495-0.384-2.414-0.384c-0.384,0-0.729,0.039-1.112,0.345
		c-0.689,0.575-1.264,1.266-1.994,2.646c-0.46,0.919-0.535,2.146-0.575,3.22c0,0.651,0,1.533,0,2.108l3.145,0.115
		c0,1.035,0,2.108-0.078,3.143c-1.609,0-3.986,0-5.787,0c-1.688,0-3.835,0.039-5.444,0.039
		C433.715,36.213,433.715,35.063,433.754,34.104z"/>
	<path fill="#818C97" d="M3.165,58.3h16.101v5.521H9.758v3.91h8.127v5.521H9.758v4.446h9.891v5.52H3.165V58.3z"/>
	<path fill="#818C97" d="M21.139,64.05h6.593l2.07,8.357c0.46,1.917,0.92,3.909,1.38,5.98h0.154c0.459-2.071,0.92-4.063,1.38-5.98
		l2.07-8.357h6.286l-6.056,19.167h-7.59L21.139,64.05z"/>
	<path fill="#818C97" d="M50.229,63.59c5.674,0,8.357,4.141,8.357,9.277c0,1.15-0.153,2.146-0.268,2.606H47.393
		c0.613,2.453,2.3,3.221,4.447,3.221c1.303,0,2.53-0.384,3.91-1.149l2.146,3.909c-2.07,1.457-4.83,2.223-6.977,2.223
		c-5.597,0-9.89-3.68-9.89-10.043C41.029,67.424,45.553,63.59,50.229,63.59z M52.989,71.486c0-1.609-0.613-2.912-2.607-2.912
		c-1.457,0-2.684,0.805-3.066,2.912H52.989z"/>
	<path fill="#818C97" d="M61.187,64.05h5.367l0.46,3.297h0.153c1.418-2.606,3.565-3.757,5.444-3.757c1.188,0,1.84,0.152,2.376,0.385
		l-1.073,5.672c-0.69-0.152-1.303-0.306-2.146-0.306c-1.38,0-3.066,0.844-3.987,3.22v10.656h-6.594V64.05z"/>
	<path fill="#818C97" d="M79.518,85.287c1.763,0,2.606-0.767,2.99-1.917l0.229-0.843L75.454,64.05h6.593l2.3,7.36
		c0.536,1.764,0.92,3.526,1.38,5.443h0.153c0.383-1.84,0.767-3.603,1.227-5.443l1.917-7.36h6.287l-6.44,18.861
		c-1.993,5.175-4.063,7.514-8.817,7.514c-1.303,0-2.07-0.153-2.913-0.384l1.15-4.984C78.636,85.135,79.134,85.287,79.518,85.287z"/>
	<path fill="#818C97" d="M105.051,58.3h7.36c7.59,0,12.804,3.526,12.804,12.344s-5.214,12.573-12.421,12.573h-7.744V58.3z
		 M112.028,77.927c3.604,0,6.44-1.456,6.44-7.283s-2.836-7.054-6.44-7.054h-0.384v14.337H112.028z"/>
	<path fill="#818C97" d="M137.627,70.797c-0.153-1.38-0.997-1.993-2.684-1.993c-1.38,0-2.837,0.537-4.83,1.61l-2.3-4.294
		c2.684-1.609,5.443-2.53,8.434-2.53c4.983,0,7.974,2.684,7.974,8.971v10.656h-5.367l-0.46-1.84h-0.154
		c-1.533,1.381-3.22,2.3-5.29,2.3c-3.604,0-5.75-2.76-5.75-5.902C127.2,73.787,130.267,71.564,137.627,70.797z M135.25,78.617
		c1.074,0,1.687-0.536,2.377-1.303v-2.607c-3.144,0.46-4.141,1.457-4.141,2.53C133.487,78.119,134.101,78.617,135.25,78.617z"/>
	<path fill="#818C97" d="M148.812,85.287c1.763,0,2.607-0.767,2.99-1.917l0.229-0.843l-7.284-18.478h6.594l2.3,7.36
		c0.536,1.764,0.92,3.526,1.38,5.443h0.153c0.383-1.84,0.767-3.603,1.227-5.443l1.917-7.36h6.287l-6.44,18.861
		c-1.993,5.175-4.063,7.514-8.817,7.514c-1.303,0-2.07-0.153-2.913-0.384l1.15-4.984C147.929,85.135,148.428,85.287,148.812,85.287z
		"/>
	<path fill="#818C97" d="M166.367,68.037c2.454-1.073,3.68-2.568,3.68-4.868c-0.115,0.037-0.269,0.037-0.383,0.037
		c-1.84,0-3.297-1.226-3.297-3.143c0-2.147,1.38-3.527,3.297-3.527c2.683,0,4.063,2.07,4.063,5.597c0,3.834-1.917,6.823-5.98,8.741
		L166.367,68.037z"/>
	<path fill="#818C97" d="M177.539,76.931c1.764,1.304,3.335,1.916,4.677,1.916c1.38,0,1.917-0.383,1.917-1.149
		c0-0.996-1.764-1.456-3.68-2.224c-2.224-0.882-4.83-2.529-4.83-5.674c0-3.756,3.066-6.21,7.59-6.21c3.143,0,5.367,1.265,7.053,2.53
		l-2.913,3.91c-1.38-0.996-2.722-1.61-3.911-1.61c-1.112,0-1.687,0.307-1.687,1.074c0,0.996,1.687,1.38,3.603,2.07
		c2.3,0.843,4.907,2.3,4.907,5.75c0,3.603-2.837,6.362-8.204,6.362c-2.454,0-5.444-1.072-7.437-2.683L177.539,76.931z"/>
	<path fill="#818C97" d="M205.296,63.82h-6.594V58.3h19.781v5.521h-6.594v19.396h-6.593V63.82z"/>
	<path fill="#818C97" d="M223.684,85.287c1.764,0,2.607-0.767,2.99-1.917l0.23-0.843l-7.283-18.478h6.593l2.3,7.36
		c0.537,1.764,0.92,3.526,1.38,5.443h0.154c0.383-1.84,0.767-3.603,1.226-5.443l1.917-7.36h6.287l-6.44,18.861
		c-1.994,5.175-4.063,7.514-8.817,7.514c-1.304,0-2.07-0.153-2.914-0.384l1.15-4.984C222.802,85.135,223.301,85.287,223.684,85.287z
		"/>
	<path fill="#818C97" d="M247.626,84.675v5.29h-6.593V64.05h5.367l0.46,1.765h0.154c1.418-1.304,3.296-2.225,5.213-2.225
		c4.523,0,7.437,3.834,7.437,9.736c0,6.595-3.91,10.351-7.974,10.351c-1.61,0-3.067-0.689-4.293-1.916L247.626,84.675z
		 M250.08,78.311c1.534,0,2.837-1.226,2.837-4.906c0-3.144-0.92-4.448-2.683-4.448c-0.997,0-1.764,0.385-2.607,1.381v7.054
		C248.394,78.081,249.237,78.311,250.08,78.311z"/>
	<path fill="#818C97" d="M270.775,63.59c4.907,0,9.507,3.681,9.507,10.044s-4.6,10.043-9.507,10.043
		c-4.907,0-9.507-3.68-9.507-10.043S265.868,63.59,270.775,63.59z M270.775,78.388c1.994,0,2.76-1.841,2.76-4.754
		s-0.767-4.753-2.76-4.753c-1.993,0-2.76,1.84-2.76,4.753S268.782,78.388,270.775,78.388z"/>
	<path fill="#818C97" d="M284.077,82.681v-0.153c-0.997-0.69-1.764-1.687-1.764-3.296c0-1.305,0.844-2.685,2.146-3.604v-0.153
		c-1.38-0.919-2.607-2.684-2.607-4.907c0-4.752,3.987-6.977,8.204-6.977c1.073,0,2.146,0.152,3.067,0.46h7.13v4.754h-2.76
		c0.153,0.46,0.306,1.227,0.306,1.993c0,4.523-3.45,6.363-7.743,6.363c-0.613,0-1.304-0.075-2.147-0.269
		c-0.383,0.346-0.459,0.575-0.459,1.112c0,0.843,0.766,1.15,2.684,1.15h2.875c4.792,0,7.552,1.457,7.552,4.983
		c0,4.14-4.293,6.978-11.116,6.978c-4.371,0-8.051-1.304-8.051-4.755C281.393,84.789,282.313,83.602,284.077,82.681z
		 M290.517,87.051c2.147,0,3.757-0.69,3.757-1.764c0-0.996-0.92-1.149-2.569-1.149h-1.495c-1.533,0-2.224-0.077-2.76-0.23
		c-0.46,0.46-0.69,0.844-0.69,1.38C286.76,86.515,288.293,87.051,290.517,87.051z M292.126,70.566c0-1.763-0.843-2.606-2.07-2.606
		s-2.071,0.844-2.071,2.606c0,1.841,0.844,2.685,2.071,2.685S292.126,72.407,292.126,70.566z"/>
	<path fill="#818C97" d="M302.445,64.05h5.367l0.459,3.297h0.153c1.419-2.606,3.566-3.757,5.442-3.757
		c1.19,0,1.842,0.152,2.379,0.385l-1.074,5.672c-0.689-0.152-1.305-0.306-2.146-0.306c-1.381,0-3.066,0.844-3.987,3.22v10.656
		h-6.593V64.05z"/>
	<path fill="#818C97" d="M327.23,70.797c-0.154-1.38-0.997-1.993-2.684-1.993c-1.38,0-2.838,0.537-4.83,1.61l-2.301-4.294
		c2.683-1.609,5.444-2.53,8.434-2.53c4.983,0,7.975,2.684,7.975,8.971v10.656h-5.367l-0.46-1.84h-0.153
		c-1.534,1.381-3.22,2.3-5.291,2.3c-3.604,0-5.75-2.76-5.75-5.902C316.803,73.787,319.869,71.564,327.23,70.797z M324.853,78.617
		c1.073,0,1.688-0.536,2.378-1.303v-2.607c-3.145,0.46-4.141,1.457-4.141,2.53C323.09,78.119,323.703,78.617,324.853,78.617z"/>
	<path fill="#818C97" d="M343.785,84.675v5.29h-6.594V64.05h5.365l0.462,1.765h0.153c1.419-1.304,3.298-2.225,5.214-2.225
		c4.523,0,7.437,3.834,7.437,9.736c0,6.595-3.91,10.351-7.974,10.351c-1.61,0-3.066-0.689-4.293-1.916L343.785,84.675z
		 M346.238,78.311c1.534,0,2.838-1.226,2.838-4.906c0-3.144-0.921-4.448-2.685-4.448c-0.997,0-1.763,0.385-2.606,1.381v7.054
		C344.553,78.081,345.395,78.311,346.238,78.311z"/>
	<path fill="#818C97" d="M358.424,56.536h6.592v6.21l-0.305,3.298c1.304-1.15,3.143-2.454,5.749-2.454c4.218,0,5.98,3.067,5.98,7.82
		v11.807h-6.593V72.254c0-2.454-0.613-3.067-1.917-3.067c-1.228,0-1.916,0.537-2.915,1.457v12.573h-6.592V56.536z"/>
	<path fill="#818C97" d="M379.349,58.376c0-1.916,1.532-3.296,3.68-3.296s3.68,1.38,3.68,3.296c0,1.918-1.532,3.298-3.68,3.298
		S379.349,60.294,379.349,58.376z M379.732,64.05h6.592v19.167h-6.592V64.05z"/>
	<path fill="#818C97" d="M398.936,63.59c2.3,0,4.294,0.844,5.598,2.146l-2.991,4.063c-0.844-0.689-1.534-0.919-2.223-0.919
		c-2.454,0-3.911,1.84-3.911,4.753s1.61,4.754,3.68,4.754c1.229,0,2.226-0.613,3.069-1.228l2.604,4.141
		c-1.916,1.687-4.445,2.376-6.439,2.376c-5.443,0-9.66-3.68-9.66-10.043S393.492,63.59,398.936,63.59z"/>
	<path fill="#818C97" d="M426.616,77.927h-6.979l-1.226,5.29h-6.749l7.593-24.917h7.972l7.591,24.917h-6.976L426.616,77.927z
		 M425.427,72.829l-0.422-1.726c-0.613-2.377-1.226-5.405-1.841-7.897h-0.151c-0.537,2.53-1.15,5.521-1.765,7.897l-0.421,1.726
		H425.427z"/>
	<path fill="#818C97" d="M442.848,63.59c2.072,0,3.298,0.767,4.448,1.917l-0.229-2.761v-6.21h6.594v26.681h-5.367l-0.46-1.763
		h-0.153c-1.304,1.304-3.145,2.223-4.832,2.223c-4.752,0-7.818-3.833-7.818-10.043C435.029,67.347,438.939,63.59,442.848,63.59z
		 M444.613,78.311c0.995,0,1.763-0.307,2.453-1.38v-7.054c-0.768-0.69-1.765-0.921-2.608-0.921c-1.379,0-2.683,1.229-2.683,4.601
		C441.775,77.007,442.848,78.311,444.613,78.311z"/>
	<path fill="#818C97" d="M455.214,64.05h6.595l2.07,8.357c0.459,1.917,0.919,3.909,1.379,5.98h0.155
		c0.46-2.071,0.919-4.063,1.379-5.98l2.069-8.357h6.287l-6.056,19.167h-7.591L455.214,64.05z"/>
	<path fill="#818C97" d="M484.307,63.59c5.672,0,8.356,4.141,8.356,9.277c0,1.15-0.153,2.146-0.269,2.606H481.47
		c0.612,2.453,2.3,3.221,4.447,3.221c1.302,0,2.529-0.384,3.91-1.149l2.146,3.909c-2.069,1.457-4.83,2.223-6.977,2.223
		c-5.597,0-9.889-3.68-9.889-10.043C475.107,67.424,479.629,63.59,484.307,63.59z M487.067,71.486c0-1.609-0.615-2.912-2.608-2.912
		c-1.455,0-2.684,0.805-3.067,2.912H487.067z"/>
	<path fill="#818C97" d="M495.265,64.05h5.366l0.459,2.301h0.155c1.532-1.457,3.449-2.761,6.056-2.761c4.217,0,5.98,3.067,5.98,7.82
		v11.807h-6.593V72.254c0-2.454-0.613-3.067-1.917-3.067c-1.228,0-1.916,0.537-2.913,1.457v12.573h-6.594V64.05z"/>
	<path fill="#818C97" d="M517.327,69.187h-2.529v-4.907l2.913-0.229l0.767-4.983h5.444v4.983h4.37v5.137h-4.37v6.555
		c0,2.109,1.072,2.8,2.299,2.8c0.614,0,1.228-0.153,1.688-0.307l0.997,4.753c-0.997,0.308-2.416,0.689-4.523,0.689
		c-4.985,0-7.055-3.143-7.055-7.819V69.187z"/>
	<path fill="#818C97" d="M530.731,64.05h6.593v10.964c0,2.453,0.613,3.067,1.917,3.067c1.228,0,1.916-0.46,2.76-1.687V64.05h6.594
		v19.167h-5.366l-0.461-2.53h-0.153c-1.532,1.841-3.296,2.99-5.902,2.99c-4.218,0-5.98-3.065-5.98-7.819V64.05z"/>
	<path fill="#818C97" d="M552.047,64.05h5.367l0.46,3.297h0.153c1.419-2.606,3.565-3.757,5.442-3.757
		c1.19,0,1.841,0.152,2.378,0.385l-1.074,5.672c-0.688-0.152-1.304-0.306-2.146-0.306c-1.381,0-3.068,0.844-3.988,3.22v10.656
		h-6.593V64.05z"/>
	<path fill="#818C97" d="M575.104,63.59c5.674,0,8.356,4.141,8.356,9.277c0,1.15-0.153,2.146-0.269,2.606h-10.925
		c0.612,2.453,2.3,3.221,4.447,3.221c1.304,0,2.529-0.384,3.91-1.149l2.147,3.909c-2.071,1.457-4.832,2.223-6.979,2.223
		c-5.597,0-9.889-3.68-9.889-10.043C565.904,67.424,570.428,63.59,575.104,63.59z M577.864,71.486c0-1.609-0.615-2.912-2.607-2.912
		c-1.456,0-2.685,0.805-3.068,2.912H577.864z"/>
	<path fill="#818C97" d="M587.273,76.931c1.764,1.304,3.335,1.916,4.677,1.916c1.381,0,1.916-0.383,1.916-1.149
		c0-0.996-1.763-1.456-3.68-2.224c-2.225-0.882-4.829-2.529-4.829-5.674c0-3.756,3.066-6.21,7.59-6.21
		c3.143,0,5.365,1.265,7.053,2.53l-2.913,3.91c-1.38-0.996-2.723-1.61-3.911-1.61c-1.112,0-1.688,0.307-1.688,1.074
		c0,0.996,1.688,1.38,3.604,2.07c2.3,0.843,4.907,2.3,4.907,5.75c0,3.603-2.838,6.362-8.203,6.362c-2.454,0-5.444-1.072-7.438-2.683
		L587.273,76.931z"/>
</g>
</svg>
