<?xml version="1.0" encoding="utf-8"?>
<!-- Generator: Adobe Illustrator 15.1.0, SVG Export Plug-In . SVG Version: 6.00 Build 0)  -->
<!DOCTYPE svg PUBLIC "-//W3C//DTD SVG 1.1//EN" "http://www.w3.org/Graphics/SVG/1.1/DTD/svg11.dtd">
<svg version="1.1" id="Ebene_1" xmlns="http://www.w3.org/2000/svg" xmlns:xlink="http://www.w3.org/1999/xlink" x="0px" y="0px"
	 width="239px" height="417px" viewBox="0 0 239 417" enable-background="new 0 0 239 417" xml:space="preserve">
<g>
	<g>
		<path fill="#42459D" d="M0,0v417h210.881c0,0,28.119,0,28.119-28.177V28.175c0,0,0-28.175-28.119-28.175H0z"/>
	</g>
	<text transform="matrix(1 0 0 1 27.415 136.8481)"><tspan x="0" y="0" fill="#00A0E3" font-family="'ChaparralPro-Bold'" font-size="37.6932">T</tspan><tspan x="22.917" y="0" fill="#00A0E3" font-family="'ChaparralPro-Bold'" font-size="37.6932">y</tspan><tspan x="43.045" y="0" fill="#00A0E3" font-family="'ChaparralPro-Bold'" font-size="37.6932">p</tspan><tspan x="64.417" y="0" fill="#00A0E3" font-family="'ChaparralPro-Bold'" font-size="37.6932">o</tspan><tspan x="84.733" y="0" fill="#00A0E3" font-family="'ChaparralPro-Bold'" font-size="37.6932">g</tspan><tspan x="105.502" y="0" fill="#00A0E3" font-family="'ChaparralPro-Bold'" font-size="37.6932">u</tspan><tspan x="127.854" y="0" fill="#00A0E3" font-family="'ChaparralPro-Bold'" font-size="37.6932">i</tspan><tspan x="139.5" y="0" fill="#00A0E3" font-family="'ChaparralPro-Bold'" font-size="37.6932">d</tspan><tspan x="159.967" y="0" fill="#00A0E3" font-family="'ChaparralPro-Bold'" font-size="37.6932">e</tspan></text>
	<text transform="matrix(1 0 0 1 28.1182 176.8887)"><tspan x="0" y="0" fill="#FFFFFF" font-family="'SourceSansPro-Black'" font-size="10.9112">A </tspan><tspan x="8.663" y="0" fill="#FFFFFF" font-family="'SourceSansPro-Black'" font-size="10.9112">P</tspan><tspan x="15.199" y="0" fill="#FFFFFF" font-family="'SourceSansPro-Black'" font-size="10.9112">oc</tspan><tspan x="26.459" y="0" fill="#FFFFFF" font-family="'SourceSansPro-Black'" font-size="10.9112">k</tspan><tspan x="32.308" y="0" fill="#FFFFFF" font-family="'SourceSansPro-Black'" font-size="10.9112">e</tspan><tspan x="37.84" y="0" fill="#FFFFFF" font-family="'SourceSansPro-Black'" font-size="10.9112">t Guide </tspan></text>
	<text transform="matrix(1 0 0 1 28.1182 189.7861)"><tspan x="0" y="0" fill="#FFFFFF" font-family="'SourceSansPro-Black'" font-size="10.9112">t</tspan><tspan x="4.255" y="0" fill="#FFFFFF" font-family="'SourceSansPro-Black'" font-size="10.9112">o Mas</tspan><tspan x="31.97" y="0" fill="#FFFFFF" font-family="'SourceSansPro-Black'" font-size="10.9112">t</tspan><tspan x="36.225" y="0" fill="#FFFFFF" font-family="'SourceSansPro-Black'" font-size="10.9112">er E</tspan><tspan x="54.883" y="0" fill="#FFFFFF" font-family="'SourceSansPro-Black'" font-size="10.9112">v</tspan><tspan x="60.72" y="0" fill="#FFFFFF" font-family="'SourceSansPro-Black'" font-size="10.9112">ery Day</tspan><tspan x="98.058" y="0" fill="#FFFFFF" font-family="'SourceSansPro-Black'" font-size="10.9112">’</tspan><tspan x="101.232" y="0" fill="#FFFFFF" font-family="'SourceSansPro-Black'" font-size="10.9112">s </tspan></text>
	<text transform="matrix(1 0 0 1 28.1182 202.6826)"><tspan x="0" y="0" fill="#FFFFFF" font-family="'SourceSansPro-Black'" font-size="10.9112">T</tspan><tspan x="5.936" y="0" fill="#FFFFFF" font-family="'SourceSansPro-Black'" font-size="10.9112">ypog</tspan><tspan x="30.245" y="0" fill="#FFFFFF" font-family="'SourceSansPro-Black'" font-size="10.9112">r</tspan><tspan x="34.479" y="0" fill="#FFFFFF" font-family="'SourceSansPro-Black'" font-size="10.9112">aphic Ad</tspan><tspan x="76.355" y="0" fill="#FFFFFF" font-family="'SourceSansPro-Black'" font-size="10.9112">v</tspan><tspan x="82.192" y="0" fill="#FFFFFF" font-family="'SourceSansPro-Black'" font-size="10.9112">entu</tspan><tspan x="104.953" y="0" fill="#FFFFFF" font-family="'SourceSansPro-Black'" font-size="10.9112">r</tspan><tspan x="109.404" y="0" fill="#FFFFFF" font-family="'SourceSansPro-Black'" font-size="10.9112">es</tspan></text>
	<text transform="matrix(1 0 0 1 28.1182 389.0117)"><tspan x="0" y="0" fill="#FFFFFF" font-family="'SourceSansPro-Bold'" font-size="6.9435">BENEDI</tspan><tspan x="27.037" y="0" fill="#FFFFFF" font-family="'SourceSansPro-Bold'" font-size="6.9435">K</tspan><tspan x="31.808" y="0" fill="#FFFFFF" font-family="'SourceSansPro-Bold'" font-size="6.9435">T </tspan><tspan x="38.48" y="0" fill="#FFFFFF" font-family="'SourceSansPro-Bold'" font-size="6.9435">LE</tspan><tspan x="47.242" y="0" fill="#FFFFFF" font-family="'SourceSansPro-Bold'" font-size="6.9435">H</tspan><tspan x="52.596" y="0" fill="#FFFFFF" font-family="'SourceSansPro-Bold'" font-size="6.9435">NE</tspan><tspan x="62.386" y="0" fill="#FFFFFF" font-family="'SourceSansPro-Bold'" font-size="6.9435">R</tspan><tspan x="67.212" y="0" fill="#FFFFFF" font-family="'SourceSansPro-Bold'" font-size="6.9435">T</tspan></text>
</g>
</svg>
