<?xml version="1.0" encoding="utf-8"?>
<!-- Generator: Adobe Illustrator 15.1.0, SVG Export Plug-In . SVG Version: 6.00 Build 0)  -->
<!DOCTYPE svg PUBLIC "-//W3C//DTD SVG 1.1//EN" "http://www.w3.org/Graphics/SVG/1.1/DTD/svg11.dtd">
<svg version="1.1" id="Ebene_1" xmlns="http://www.w3.org/2000/svg" xmlns:xlink="http://www.w3.org/1999/xlink" x="0px" y="0px"
	 width="100px" height="100px" viewBox="0 0 100 100" enable-background="new 0 0 100 100" xml:space="preserve">
<g>
	<g>
		<g>
			<defs>
				<rect id="SVGID_1_" width="100" height="100"/>
			</defs>
			<clipPath id="SVGID_2_">
				<use xlink:href="#SVGID_1_"  overflow="visible"/>
			</clipPath>
			<path clip-path="url(#SVGID_2_)" fill="#F05721" d="M50,100c27.613,0,50-22.386,50-50S77.613,0,50,0C22.386,0,0,22.386,0,50
				S22.386,100,50,100"/>
		</g>
		<g>
			<defs>
				<circle id="SVGID_3_" cx="50" cy="50" r="50"/>
			</defs>
			<clipPath id="SVGID_4_">
				<use xlink:href="#SVGID_3_"  overflow="visible"/>
			</clipPath>
		</g>
	</g>
	<g>
		<path fill="#43459D" d="M30.306,70.971c0.144,0,0.36-0.143,0.432-0.359c4.393-11.666,10.729-28.73,15.05-40.467
			C47.083,30,50.396,30,55.651,30c4.177,12.098,9.865,29.307,13.825,40.898l3.673,0.289c0,1.943,0,4.031-0.072,6.049
			c-2.376,0-5.904,0-8.641,0c-3.744,0-8.28,0-11.593,0c0-2.018,0-4.105,0.071-6.121l3.528-0.217c0.145,0,0.288-0.143,0.217-0.359
			c-0.36-1.08-1.009-3.385-1.44-4.465c-0.072-0.287-0.216-0.359-0.504-0.359l-13.321,0.145c-0.36,1.584-0.937,3.6-1.224,5.111
			l3.96,0.217c0,1.943,0,4.031-0.072,6.049c-2.88,0-6.624,0-10.152,0c-2.377,0-4.896,0-7.057,0c0-2.018,0.071-4.105,0.144-6.049
			L30.306,70.971z M48.163,43.393c-1.656,5.328-3.384,11.018-4.896,15.914c-0.072,0.287-0.072,0.432,0.145,0.432h10.08
			c-1.512-4.752-3.24-10.656-4.968-16.346H48.163z"/>
	</g>
</g>
</svg>
