<?xml version="1.0" encoding="utf-8"?>
<!-- Generator: Adobe Illustrator 15.1.0, SVG Export Plug-In . SVG Version: 6.00 Build 0)  -->
<!DOCTYPE svg PUBLIC "-//W3C//DTD SVG 1.1//EN" "http://www.w3.org/Graphics/SVG/1.1/DTD/svg11.dtd">
<svg version="1.1" id="Ebene_1" xmlns="http://www.w3.org/2000/svg" xmlns:xlink="http://www.w3.org/1999/xlink" x="0px" y="0px"
	 width="239px" height="417px" viewBox="0 0 239 417" enable-background="new 0 0 239 417" xml:space="preserve">
<g>
	<g>
		<path fill="#42459D" d="M0,0v417h210.881c0,0,28.119,0,28.119-28.177V28.175c0,0,0-28.175-28.119-28.175H0z"/>
	</g>
	<g>
		<path fill="#00A0E3" d="M35.707,133.531c0.075,0,0.112-0.075,0.112-0.15v-17.639c-1.432,0-2.072,0.113-2.601,0.188
			c-0.527,0.113-0.641,0.377-0.716,0.754l-0.679,3.618c-1.318-0.076-2.788-0.188-3.994-0.339c0.15-2.563,0.301-5.125,0.489-7.651
			c0.792,0,2.224,0.038,3.543,0.038c0.979,0,5.992,0,7.387,0c1.169,0,6.03,0,7.048,0c1.508-0.038,2.827-0.038,3.581-0.038
			c0.15,2.525,0.302,5.088,0.377,7.613c-1.244,0.151-2.676,0.264-4.033,0.377l-0.603-3.618c-0.075-0.415-0.227-0.603-0.717-0.716
			c-0.489-0.113-0.941-0.188-2.6-0.188l-0.113,17.714l2.713,0.151c0,1.018,0,2.148-0.037,3.241c-1.583,0-3.845-0.038-5.842-0.038
			c-1.81,0-4.033,0.038-5.917,0.038c0-1.093,0.037-2.186,0.037-3.241L35.707,133.531z"/>
		<path fill="#00A0E3" d="M68.348,123.506c-0.527,1.356-2.035,5.239-3.166,8.028c-1.018,2.374-3.58,8.404-5.578,11.533
			c-0.979,1.545-1.997,3.015-2.902,3.542c-1.243,0-4.522-2.186-4.522-3.166c0.754-0.415,1.696-1.055,2.714-1.96
			c1.168-1.093,2.224-2.224,2.789-3.618c-1.169-2.902-2.073-5.125-3.166-7.877c-0.904-2.412-1.771-4.711-2.375-6.294
			c0-0.076-0.112-0.113-0.188-0.151l-1.433-0.076c0-1.055,0.038-2.224,0.075-3.204c1.206,0,2.902,0,4.447,0c1.696,0,3.77,0,5.39,0
			c0,1.018,0,2.186-0.037,3.204l-1.734,0.076c0.227,0.792,0.604,2.035,1.206,3.919c0.452,1.432,0.942,2.789,1.47,4.41h0.265
			c0.414-1.281,0.791-2.601,1.13-3.957c0.302-1.319,0.565-2.563,0.942-4.184c0-0.113-0.037-0.188-0.15-0.188l-1.319-0.076
			c0.038-1.055,0.038-2.224,0.075-3.204c1.244,0,2.978,0,4.297,0c1.056,0,2.299,0,3.203,0c0,0.98-0.037,2.148-0.075,3.166
			L68.348,123.506z"/>
		<path fill="#00A0E3" d="M71.289,142.69l1.81-0.151c0.075,0,0.15-0.113,0.15-0.188l0.038-18.166l-2.412-0.075
			c0-1.018,0.037-2.111,0.075-3.091c1.809-0.188,7.5-1.168,7.688-1.168c0.075,0,0.075,0,0.075,0.076
			c0.15,0.678,0.264,1.395,0.415,2.073l0.226,0.038c3.807-2.035,4.259-2.148,5.805-2.148c3.128-0.038,5.766,3.505,5.729,7.425
			c0,1.733-0.415,3.467-1.131,5.05c-0.527,1.13-1.395,2.525-2.902,3.656c-0.754,0.565-2.524,1.206-4.032,1.206
			c-1.433,0-2.487-0.188-3.316-0.528l-0.265,0.076c0.038,1.884,0.038,3.807,0.038,5.729l3.091,0.076
			c0,1.055-0.038,2.148-0.076,3.128c-1.809,0-4.07,0-6.067,0.038c-1.508,0-3.505,0-4.976,0.037
			C71.251,144.763,71.251,143.67,71.289,142.69z M83.877,125.24c-0.301-0.452-0.791-0.98-1.507-0.98
			c-0.754,0-1.847,0.377-2.94,1.056c-0.037,2.11-0.075,5.088-0.075,7.198c0,0.754,1.508,1.319,2.299,1.319
			c0.679,0,1.47-0.264,1.923-0.98c0.527-0.792,0.866-2.11,0.866-4.108C84.442,126.974,84.217,125.768,83.877,125.24z"/>
		<path fill="#00A0E3" d="M95.752,135.416c-1.734-1.47-2.789-3.505-2.789-6.407c0-2.978,1.319-5.653,3.58-7.312
			c1.658-1.244,3.92-1.809,6.182-1.809c1.997,0,3.693,0.452,5.163,1.356c1.922,1.244,3.392,3.618,3.392,6.973
			c0,3.317-1.809,6.144-4.032,7.576c-1.47,0.942-3.354,1.432-5.503,1.432C99.521,137.225,97.26,136.697,95.752,135.416z
			 M103.854,133.381c0.717-0.98,0.905-2.488,0.905-5.013c0-2.299-0.302-3.467-0.679-4.372c-0.415-0.792-1.093-1.168-1.771-1.168
			s-1.281,0.264-1.771,0.942c-0.603,0.904-0.979,2.337-0.979,4.636c0,2.789,0.339,4.07,0.866,4.862
			c0.49,0.754,1.056,1.018,1.734,1.018C102.8,134.285,103.402,134.097,103.854,133.381z"/>
		<path fill="#00A0E3" d="M117.425,132.212c-1.733-0.754-4.07-2.525-4.07-5.427c0-4.07,4.033-6.897,8.781-6.897
			c1.658,0,3.241,0.226,3.656,0.301c0.377,0.075,0.641,0.151,0.829,0.113c1.771-0.076,4.674-0.226,5.653-0.302
			c0.113,1.055,0.113,2.337,0.038,3.392c-0.754,0.038-2.111,0.038-3.016,0.038l-0.075,0.151c0.452,0.603,0.791,1.621,0.791,2.713
			c0,1.282-0.489,2.902-1.695,4.184c-1.244,1.244-3.656,2.45-7.576,2.337c-0.489,0.415-0.791,0.904-0.791,1.244
			c0,0.792,0.716,0.905,3.769,1.018c4.108,0.113,5.239,0.302,6.634,1.282c1.281,0.904,1.771,1.621,1.771,3.505
			c0,2.487-1.885,4.636-5.013,5.729c-1.81,0.679-4.07,1.018-6.445,1.018c-5.314,0-8.479-1.62-8.479-4.485
			c0-0.49,0.226-0.792,0.791-1.168c1.658-1.13,2.714-1.733,3.58-2.299v-0.226c-1.432-0.603-2.864-1.319-2.864-3.43
			c0-0.415,0.151-0.528,3.731-2.525V132.212z M123.38,139.637c-1.771-0.113-3.128-0.264-3.92-0.302
			c-0.641,0.792-1.018,1.47-1.018,2.412c0,1.319,1.621,1.998,3.43,1.998c1.244,0,2.412-0.226,3.166-0.716
			c0.716-0.415,1.093-1.131,1.093-1.922C126.131,140.089,125.717,139.788,123.38,139.637z M121.797,130.102
			c1.356,0,2.148-1.281,2.148-4.07c0-1.319-0.151-1.998-0.565-2.713c-0.302-0.565-0.942-0.754-1.583-0.754
			c-1.356,0-2.299,1.357-2.299,3.656C119.498,129.311,120.478,130.102,121.797,130.102z"/>
		<path fill="#00A0E3" d="M153.872,136.509c-0.377,0.188-3.693,0.716-6.181,0.716c-0.565-0.415-1.093-0.98-1.734-1.884h-0.188
			c-3.09,1.771-3.806,1.884-5.313,1.884c-2.299,0-5.164-3.015-5.164-5.314c0-2.864,0.038-5.842,0.076-8.292l-1.696-0.075
			c0-1.018,0.037-2.111,0.075-3.091c1.545-0.075,7.123-0.226,7.613-0.264c0.075,0,0.113,0.075,0.113,0.151
			c0,2.638-0.113,5.955-0.113,8.706c0,1.093-0.038,2.412,0.452,3.241c0.452,0.716,0.98,0.754,1.47,0.754
			c0.641,0,1.546-0.264,2.262-0.792c0.037-2.563,0-6.332,0-8.593l-1.847-0.075c0.037-1.055,0.037-2.224,0.075-3.204
			c1.395-0.038,7.35-0.151,7.915-0.151c0.037,0,0.075,0.113,0.075,0.151c-0.038,3.995-0.113,8.518-0.113,12.852
			c0,0.151,0.038,0.226,0.15,0.226l2.111-0.075C153.91,134.361,153.872,135.529,153.872,136.509z"/>
		<path fill="#00A0E3" d="M156.06,124.109c0-1.018,0.038-2.186,0.076-3.204c2.035-0.151,8.141-1.018,8.442-1.018
			c0.075,0,0.075,0.038,0.075,0.113c-0.038,4.07-0.113,9.875-0.113,13.644l2.073,0.075c0,1.056,0,2.111,0,3.128
			c-1.433,0-3.581,0-5.201,0c-1.583,0-3.581,0.038-5.126,0.038c0-1.018,0-2.148,0.038-3.128l1.997-0.076
			c0.113-0.038,0.15-0.113,0.15-0.188v-9.271L156.06,124.109z M164.54,114.272c0,2.035-1.658,3.392-3.543,3.392
			c-1.62,0-3.278-1.395-3.278-3.317c0-1.583,1.395-3.128,3.467-3.128C163.372,111.22,164.54,112.689,164.54,114.272z"/>
		<path fill="#00A0E3" d="M179.843,135.529c-3.354,1.583-4.184,1.696-5.126,1.696c-1.433,0-3.016-0.452-4.41-1.809
			c-1.281-1.281-2.261-3.317-2.261-5.804c0-2.864,0.979-5.427,2.902-7.462c1.318-1.508,3.505-2.261,5.2-2.261
			c1.357,0,2.525,0.264,3.242,0.452l0.264-0.113c0-1.733-0.076-3.656-0.113-5.502l-2.827-0.113c-0.037-1.055,0-2.148,0.038-3.166
			c2.186-0.188,8.518-0.98,8.933-0.98c0.037,0,0.075,0.038,0.075,0.113c0,6.068-0.113,15.716-0.15,22.538
			c0,0.227,0.075,0.377,0.264,0.377l1.922-0.113c0,0.942,0.038,2.11,0,3.09c-0.49,0.226-3.769,0.754-6.294,0.754
			c-0.565-0.415-0.98-0.942-1.395-1.696H179.843z M179.578,124.071c-0.527-0.226-1.356-0.527-2.261-0.527
			c-0.716,0-1.47,0.264-1.885,0.98c-0.565,0.904-0.904,2.148-0.904,4.41c0,1.507,0.226,2.601,0.754,3.43
			c0.302,0.452,0.979,0.98,1.696,0.98c0.753,0,1.432-0.151,2.412-0.679c0.15-0.075,0.188-0.264,0.188-0.641
			C179.578,129.537,179.541,126.521,179.578,124.071z"/>
		<path fill="#00A0E3" d="M198.01,119.888c2.337,0,4.108,0.829,5.126,1.998c1.206,1.432,1.922,3.392,1.922,5.804
			c-0.037,0.565-1.733,2.186-2.035,2.224c-0.979,0.113-4.861,0.113-8.216,0.113c0.075,1.244,0.527,1.96,1.018,2.45
			c0.867,0.829,1.847,0.905,2.827,0.905c1.62,0,4.07-0.603,5.313-1.056c0.264,0.98,0.565,2.186,0.717,3.128
			c-2.225,1.018-5.541,1.771-7.35,1.771c-5.013,0-8.819-2.45-8.819-7.764C188.513,124.109,192.356,119.888,198.01,119.888z
			 M195.485,124.034c-0.452,0.754-0.717,1.47-0.679,2.978c1.319,0,3.166-0.038,4.259-0.075c0.227,0,0.339-0.151,0.339-0.415
			c0-0.792-0.15-1.771-0.414-2.337c-0.339-0.678-0.904-1.131-1.696-1.131C196.653,123.054,196.013,123.205,195.485,124.034z"/>
	</g>
	<g>
		<path fill="#FFFFFF" d="M32.264,175.383h-1.985l-0.349,1.506h-1.921l2.16-7.092h2.27l2.16,7.092h-1.985L32.264,175.383z
			 M31.926,173.932l-0.12-0.49c-0.175-0.677-0.349-1.539-0.523-2.248h-0.044c-0.152,0.721-0.327,1.571-0.502,2.248l-0.12,0.49
			H31.926z"/>
		<path fill="#FFFFFF" d="M37.566,169.797h2.75c1.527,0,2.836,0.567,2.836,2.356c0,1.735-1.353,2.488-2.836,2.488h-0.873v2.247
			h-1.877V169.797z M40.229,173.157c0.742,0,1.092-0.371,1.092-1.004s-0.394-0.872-1.092-0.872h-0.785v1.876H40.229z"/>
		<path fill="#FFFFFF" d="M46.372,171.303c1.396,0,2.706,1.048,2.706,2.858c0,1.812-1.31,2.858-2.706,2.858
			s-2.706-1.047-2.706-2.858C43.666,172.351,44.976,171.303,46.372,171.303z M46.372,175.514c0.567,0,0.786-0.523,0.786-1.353
			s-0.219-1.353-0.786-1.353s-0.785,0.523-0.785,1.353S45.805,175.514,46.372,175.514z"/>
		<path fill="#FFFFFF" d="M52.701,171.303c0.654,0,1.222,0.24,1.593,0.611l-0.852,1.156c-0.24-0.196-0.437-0.262-0.633-0.262
			c-0.698,0-1.112,0.523-1.112,1.353s0.458,1.353,1.047,1.353c0.35,0,0.633-0.174,0.873-0.349l0.742,1.178
			c-0.546,0.48-1.266,0.677-1.833,0.677c-1.55,0-2.749-1.047-2.749-2.858C49.777,172.351,51.151,171.303,52.701,171.303z"/>
		<path fill="#FFFFFF" d="M55.21,169.295h1.833v4.037h0.044l1.505-1.898h2.029l-1.941,2.27l2.051,3.186h-2.029l-1.091-1.942
			l-0.567,0.633v1.31H55.21V169.295z"/>
		<path fill="#FFFFFF" d="M63.394,171.303c1.614,0,2.378,1.179,2.378,2.641c0,0.327-0.043,0.61-0.076,0.741h-3.109
			c0.175,0.698,0.654,0.917,1.266,0.917c0.371,0,0.72-0.109,1.113-0.327l0.61,1.112c-0.589,0.415-1.375,0.633-1.985,0.633
			c-1.593,0-2.814-1.047-2.814-2.858C60.775,172.394,62.062,171.303,63.394,171.303z M64.179,173.55
			c0-0.458-0.175-0.829-0.742-0.829c-0.414,0-0.764,0.229-0.872,0.829H64.179z"/>
		<path fill="#FFFFFF" d="M66.831,172.896H66.11v-1.396l0.829-0.065l0.219-1.418h1.549v1.418h1.244v1.462h-1.244v1.865
			c0,0.601,0.306,0.797,0.655,0.797c0.174,0,0.349-0.044,0.479-0.087l0.284,1.353c-0.284,0.087-0.688,0.196-1.288,0.196
			c-1.418,0-2.007-0.895-2.007-2.226V172.896z"/>
		<path fill="#FFFFFF" d="M76.672,169.666c1.004,0,1.768,0.437,2.27,0.938l-1.025,1.156c-0.35-0.306-0.655-0.479-1.223-0.479
			c-0.96,0-1.68,0.764-1.68,2.051c0,1.331,0.589,2.073,1.854,2.073c0.196,0,0.415-0.044,0.546-0.131v-0.982h-1.048v-1.527h2.706
			v3.382c-0.523,0.437-1.44,0.873-2.444,0.873c-1.941,0-3.534-1.2-3.534-3.622C73.094,171.02,74.729,169.666,76.672,169.666z"/>
		<path fill="#FFFFFF" d="M80.251,171.434h1.877v3.12c0,0.698,0.175,0.873,0.545,0.873c0.35,0,0.546-0.131,0.786-0.48v-3.513h1.876
			v5.455h-1.527l-0.131-0.72h-0.043c-0.437,0.523-0.938,0.851-1.681,0.851c-1.2,0-1.702-0.873-1.702-2.226V171.434z"/>
		<path fill="#FFFFFF" d="M86.492,169.819c0-0.546,0.437-0.938,1.048-0.938c0.61,0,1.047,0.393,1.047,0.938
			c0,0.545-0.437,0.938-1.047,0.938C86.929,170.757,86.492,170.364,86.492,169.819z M86.602,171.434h1.877v5.455h-1.877V171.434z"/>
		<path fill="#FFFFFF" d="M91.729,171.303c0.59,0,0.938,0.218,1.266,0.546l-0.065-0.786v-1.768h1.877v7.594h-1.527l-0.131-0.502
			h-0.044c-0.371,0.371-0.895,0.633-1.375,0.633c-1.353,0-2.226-1.091-2.226-2.858C89.503,172.372,90.616,171.303,91.729,171.303z
			 M92.23,175.492c0.284,0,0.502-0.087,0.698-0.393v-2.008c-0.218-0.196-0.502-0.262-0.742-0.262c-0.393,0-0.764,0.35-0.764,1.31
			C91.423,175.121,91.729,175.492,92.23,175.492z"/>
		<path fill="#FFFFFF" d="M98.407,171.303c1.614,0,2.378,1.179,2.378,2.641c0,0.327-0.043,0.61-0.076,0.741H97.6
			c0.175,0.698,0.654,0.917,1.266,0.917c0.371,0,0.72-0.109,1.113-0.327l0.61,1.112c-0.589,0.415-1.375,0.633-1.985,0.633
			c-1.593,0-2.814-1.047-2.814-2.858C95.789,172.394,97.076,171.303,98.407,171.303z M99.192,173.55
			c0-0.458-0.175-0.829-0.742-0.829c-0.414,0-0.764,0.229-0.872,0.829H99.192z"/>
	</g>
	<g>
		<path fill="#FFFFFF" d="M28.991,185.793h-0.721v-1.396l0.829-0.065l0.219-1.418h1.549v1.418h1.244v1.462h-1.244v1.865
			c0,0.601,0.306,0.797,0.655,0.797c0.174,0,0.349-0.044,0.479-0.087l0.284,1.353c-0.284,0.087-0.688,0.196-1.288,0.196
			c-1.418,0-2.007-0.895-2.007-2.226V185.793z"/>
		<path fill="#FFFFFF" d="M35.428,184.2c1.396,0,2.706,1.047,2.706,2.858s-1.31,2.858-2.706,2.858s-2.705-1.047-2.705-2.858
			S34.031,184.2,35.428,184.2z M35.428,188.411c0.567,0,0.785-0.523,0.785-1.353s-0.218-1.353-0.785-1.353s-0.785,0.523-0.785,1.353
			S34.86,188.411,35.428,188.411z"/>
		<path fill="#FFFFFF" d="M41.561,182.694h1.942l1.112,2.946l0.394,1.156h0.043l0.394-1.156l1.068-2.946h1.942v7.092h-1.745v-2.095
			c0-0.72,0.152-1.822,0.239-2.531h-0.043l-0.59,1.658l-0.981,2.39h-0.698l-0.982-2.39l-0.567-1.658h-0.043
			c0.087,0.709,0.24,1.812,0.24,2.531v2.095h-1.725V182.694z"/>
		<path fill="#FFFFFF" d="M52.668,186.251c-0.044-0.393-0.283-0.567-0.764-0.567c-0.393,0-0.808,0.153-1.375,0.459l-0.654-1.223
			c0.764-0.458,1.549-0.72,2.4-0.72c1.418,0,2.27,0.764,2.27,2.553v3.033h-1.528l-0.131-0.523h-0.043
			c-0.437,0.393-0.917,0.654-1.506,0.654c-1.025,0-1.637-0.785-1.637-1.68C49.7,187.103,50.573,186.47,52.668,186.251z
			 M51.991,188.477c0.306,0,0.48-0.152,0.677-0.37v-0.742c-0.895,0.131-1.179,0.414-1.179,0.72
			C51.489,188.335,51.664,188.477,51.991,188.477z"/>
		<path fill="#FFFFFF" d="M56.181,187.997c0.502,0.371,0.949,0.545,1.331,0.545c0.393,0,0.546-0.108,0.546-0.327
			c0-0.283-0.502-0.414-1.048-0.633c-0.633-0.251-1.374-0.72-1.374-1.614c0-1.069,0.872-1.768,2.16-1.768
			c0.895,0,1.527,0.36,2.007,0.72l-0.829,1.113c-0.393-0.284-0.774-0.458-1.112-0.458c-0.316,0-0.48,0.087-0.48,0.305
			c0,0.284,0.48,0.394,1.025,0.59c0.655,0.24,1.396,0.654,1.396,1.637c0,1.025-0.807,1.811-2.335,1.811
			c-0.698,0-1.549-0.306-2.116-0.764L56.181,187.997z"/>
		<path fill="#FFFFFF" d="M60.961,185.793H60.24v-1.396l0.829-0.065l0.219-1.418h1.549v1.418h1.244v1.462h-1.244v1.865
			c0,0.601,0.306,0.797,0.655,0.797c0.174,0,0.349-0.044,0.479-0.087l0.284,1.353c-0.284,0.087-0.688,0.196-1.288,0.196
			c-1.418,0-2.007-0.895-2.007-2.226V185.793z"/>
		<path fill="#FFFFFF" d="M67.311,184.2c1.614,0,2.378,1.179,2.378,2.641c0,0.327-0.043,0.61-0.076,0.741h-3.109
			c0.175,0.698,0.654,0.917,1.266,0.917c0.371,0,0.72-0.109,1.112-0.327l0.611,1.112c-0.589,0.415-1.375,0.633-1.985,0.633
			c-1.593,0-2.815-1.047-2.815-2.858C64.691,185.291,65.979,184.2,67.311,184.2z M68.096,186.447c0-0.458-0.175-0.829-0.742-0.829
			c-0.414,0-0.764,0.229-0.872,0.829H68.096z"/>
		<path fill="#FFFFFF" d="M70.715,184.331h1.527l0.131,0.938h0.044c0.403-0.742,1.015-1.069,1.549-1.069
			c0.339,0,0.523,0.044,0.677,0.109l-0.306,1.614c-0.196-0.044-0.371-0.087-0.611-0.087c-0.393,0-0.872,0.24-1.134,0.916v3.033
			h-1.877V184.331z"/>
		<path fill="#FFFFFF" d="M77.719,182.694h4.583v1.571h-2.706v1.113h2.312v1.57h-2.312v1.266h2.814v1.571h-4.691V182.694z"/>
		<path fill="#FFFFFF" d="M83.132,184.331h1.877l0.589,2.379c0.131,0.545,0.262,1.112,0.393,1.701h0.044
			c0.131-0.589,0.262-1.156,0.393-1.701l0.589-2.379h1.789l-1.724,5.455h-2.16L83.132,184.331z"/>
		<path fill="#FFFFFF" d="M91.806,184.2c1.614,0,2.378,1.179,2.378,2.641c0,0.327-0.043,0.61-0.076,0.741h-3.109
			c0.175,0.698,0.654,0.917,1.266,0.917c0.371,0,0.72-0.109,1.113-0.327l0.61,1.112c-0.589,0.415-1.375,0.633-1.985,0.633
			c-1.593,0-2.814-1.047-2.814-2.858C89.188,185.291,90.475,184.2,91.806,184.2z M92.591,186.447c0-0.458-0.175-0.829-0.742-0.829
			c-0.414,0-0.764,0.229-0.872,0.829H92.591z"/>
		<path fill="#FFFFFF" d="M95.21,184.331h1.527l0.131,0.938h0.044c0.403-0.742,1.015-1.069,1.549-1.069
			c0.339,0,0.523,0.044,0.677,0.109l-0.306,1.614c-0.196-0.044-0.371-0.087-0.611-0.087c-0.393,0-0.872,0.24-1.134,0.916v3.033
			H95.21V184.331z"/>
		<path fill="#FFFFFF" d="M100.425,190.375c0.502,0,0.742-0.218,0.852-0.545l0.065-0.24l-2.073-5.259h1.877l0.654,2.095
			c0.152,0.502,0.262,1.004,0.393,1.549h0.044c0.109-0.523,0.218-1.025,0.349-1.549l0.546-2.095h1.789l-1.833,5.368
			c-0.567,1.473-1.156,2.138-2.509,2.138c-0.371,0-0.59-0.043-0.829-0.108l0.327-1.419
			C100.174,190.332,100.316,190.375,100.425,190.375z"/>
		<path fill="#FFFFFF" d="M108.128,182.694h2.095c2.16,0,3.645,1.004,3.645,3.514c0,2.509-1.484,3.578-3.535,3.578h-2.204V182.694z
			 M110.114,188.28c1.025,0,1.833-0.414,1.833-2.072s-0.808-2.008-1.833-2.008h-0.109v4.08H110.114z"/>
		<path fill="#FFFFFF" d="M117.773,186.251c-0.044-0.393-0.283-0.567-0.764-0.567c-0.393,0-0.808,0.153-1.375,0.459l-0.654-1.223
			c0.764-0.458,1.549-0.72,2.4-0.72c1.418,0,2.27,0.764,2.27,2.553v3.033h-1.528l-0.131-0.523h-0.043
			c-0.437,0.393-0.917,0.654-1.506,0.654c-1.025,0-1.637-0.785-1.637-1.68C114.806,187.103,115.679,186.47,117.773,186.251z
			 M117.097,188.477c0.306,0,0.48-0.152,0.677-0.37v-0.742c-0.895,0.131-1.179,0.414-1.179,0.72
			C116.595,188.335,116.77,188.477,117.097,188.477z"/>
		<path fill="#FFFFFF" d="M121.549,190.375c0.502,0,0.742-0.218,0.852-0.545l0.065-0.24l-2.073-5.259h1.877l0.654,2.095
			c0.152,0.502,0.262,1.004,0.393,1.549h0.044c0.109-0.523,0.218-1.025,0.349-1.549l0.546-2.095h1.789l-1.833,5.368
			c-0.567,1.473-1.156,2.138-2.509,2.138c-0.371,0-0.59-0.043-0.829-0.108l0.327-1.419
			C121.298,190.332,121.44,190.375,121.549,190.375z"/>
		<path fill="#FFFFFF" d="M126.983,185.466c0.698-0.306,1.047-0.731,1.047-1.386c-0.032,0.011-0.076,0.011-0.108,0.011
			c-0.524,0-0.938-0.349-0.938-0.895c0-0.61,0.393-1.004,0.938-1.004c0.764,0,1.156,0.59,1.156,1.593
			c0,1.092-0.546,1.942-1.702,2.488L126.983,185.466z"/>
		<path fill="#FFFFFF" d="M130.376,187.997c0.502,0.371,0.949,0.545,1.331,0.545c0.393,0,0.546-0.108,0.546-0.327
			c0-0.283-0.502-0.414-1.048-0.633c-0.633-0.251-1.374-0.72-1.374-1.614c0-1.069,0.872-1.768,2.16-1.768
			c0.895,0,1.527,0.36,2.007,0.72l-0.829,1.113c-0.393-0.284-0.774-0.458-1.112-0.458c-0.316,0-0.48,0.087-0.48,0.305
			c0,0.284,0.48,0.394,1.025,0.59c0.655,0.24,1.396,0.654,1.396,1.637c0,1.025-0.807,1.811-2.335,1.811
			c-0.698,0-1.549-0.306-2.116-0.764L130.376,187.997z"/>
	</g>
	<g>
		<path fill="#FFFFFF" d="M30.257,197.162H28.38v-1.571h5.63v1.571h-1.877v5.521h-1.876V197.162z"/>
		<path fill="#FFFFFF" d="M35.341,203.271c0.502,0,0.742-0.218,0.852-0.545l0.065-0.24l-2.073-5.259h1.877l0.654,2.095
			c0.152,0.502,0.262,1.004,0.393,1.549h0.044c0.109-0.523,0.218-1.025,0.349-1.549l0.546-2.095h1.789l-1.833,5.368
			c-0.567,1.473-1.156,2.138-2.509,2.138c-0.371,0-0.59-0.043-0.829-0.108l0.327-1.419C35.09,203.229,35.232,203.271,35.341,203.271
			z"/>
		<path fill="#FFFFFF" d="M42.478,203.098v1.505h-1.877v-7.375h1.527l0.131,0.502h0.044c0.403-0.371,0.938-0.633,1.483-0.633
			c1.287,0,2.116,1.091,2.116,2.771c0,1.876-1.112,2.945-2.269,2.945c-0.458,0-0.873-0.196-1.222-0.546L42.478,203.098z
			 M43.176,201.286c0.436,0,0.807-0.35,0.807-1.396c0-0.895-0.262-1.266-0.764-1.266c-0.283,0-0.502,0.109-0.741,0.393v2.008
			C42.695,201.221,42.936,201.286,43.176,201.286z"/>
		<path fill="#FFFFFF" d="M49.351,197.097c1.396,0,2.706,1.047,2.706,2.858s-1.31,2.858-2.706,2.858s-2.706-1.047-2.706-2.858
			S47.954,197.097,49.351,197.097z M49.351,201.308c0.567,0,0.786-0.523,0.786-1.353s-0.219-1.353-0.786-1.353
			s-0.785,0.523-0.785,1.353S48.783,201.308,49.351,201.308z"/>
		<path fill="#FFFFFF" d="M53.497,202.53v-0.044c-0.283-0.196-0.502-0.48-0.502-0.938c0-0.371,0.24-0.764,0.611-1.025v-0.044
			c-0.393-0.262-0.742-0.764-0.742-1.396c0-1.353,1.135-1.985,2.335-1.985c0.306,0,0.611,0.044,0.873,0.131h2.029v1.353h-0.786
			c0.044,0.131,0.088,0.35,0.088,0.567c0,1.288-0.982,1.812-2.204,1.812c-0.175,0-0.371-0.022-0.611-0.076
			c-0.108,0.098-0.131,0.163-0.131,0.316c0,0.239,0.219,0.327,0.764,0.327h0.818c1.364,0,2.149,0.414,2.149,1.418
			c0,1.179-1.222,1.985-3.164,1.985c-1.243,0-2.291-0.37-2.291-1.353C52.733,203.13,52.995,202.792,53.497,202.53z M55.33,203.773
			c0.611,0,1.069-0.196,1.069-0.502c0-0.283-0.262-0.327-0.731-0.327h-0.425c-0.437,0-0.633-0.021-0.786-0.065
			c-0.131,0.131-0.196,0.24-0.196,0.393C54.261,203.621,54.697,203.773,55.33,203.773z M55.788,199.082
			c0-0.502-0.239-0.741-0.589-0.741s-0.589,0.239-0.589,0.741c0,0.524,0.239,0.764,0.589,0.764S55.788,199.606,55.788,199.082z"/>
		<path fill="#FFFFFF" d="M58.996,197.228h1.527l0.131,0.938h0.044c0.403-0.742,1.015-1.069,1.549-1.069
			c0.339,0,0.523,0.044,0.677,0.109l-0.306,1.614c-0.196-0.044-0.371-0.087-0.611-0.087c-0.393,0-0.872,0.24-1.134,0.916v3.033
			h-1.877V197.228z"/>
		<path fill="#FFFFFF" d="M66.022,199.147c-0.044-0.393-0.284-0.567-0.764-0.567c-0.393,0-0.808,0.153-1.375,0.459l-0.654-1.223
			c0.764-0.458,1.549-0.72,2.4-0.72c1.418,0,2.27,0.764,2.27,2.553v3.033h-1.528l-0.131-0.523h-0.043
			c-0.437,0.393-0.917,0.654-1.506,0.654c-1.025,0-1.637-0.785-1.637-1.68C63.055,199.999,63.928,199.366,66.022,199.147z
			 M65.346,201.373c0.306,0,0.48-0.152,0.677-0.37v-0.742c-0.895,0.131-1.179,0.414-1.179,0.72
			C64.844,201.231,65.019,201.373,65.346,201.373z"/>
		<path fill="#FFFFFF" d="M71.021,203.098v1.505h-1.877v-7.375h1.527l0.131,0.502h0.044c0.403-0.371,0.938-0.633,1.483-0.633
			c1.287,0,2.116,1.091,2.116,2.771c0,1.876-1.112,2.945-2.269,2.945c-0.458,0-0.873-0.196-1.222-0.546L71.021,203.098z
			 M71.719,201.286c0.436,0,0.807-0.35,0.807-1.396c0-0.895-0.262-1.266-0.764-1.266c-0.283,0-0.502,0.109-0.741,0.393v2.008
			C71.238,201.221,71.479,201.286,71.719,201.286z"/>
		<path fill="#FFFFFF" d="M75.472,195.089h1.877v1.768l-0.088,0.938c0.371-0.327,0.895-0.698,1.637-0.698
			c1.2,0,1.702,0.873,1.702,2.226v3.36h-1.877v-3.12c0-0.698-0.175-0.873-0.545-0.873c-0.35,0-0.546,0.153-0.829,0.415v3.578h-1.877
			V195.089z"/>
		<path fill="#FFFFFF" d="M81.713,195.613c0-0.546,0.437-0.938,1.048-0.938c0.61,0,1.047,0.393,1.047,0.938
			c0,0.545-0.437,0.938-1.047,0.938C82.149,196.551,81.713,196.158,81.713,195.613z M81.822,197.228h1.877v5.455h-1.877V197.228z"/>
		<path fill="#FFFFFF" d="M87.605,197.097c0.654,0,1.222,0.24,1.593,0.611l-0.852,1.156c-0.24-0.196-0.437-0.262-0.633-0.262
			c-0.698,0-1.112,0.523-1.112,1.353s0.458,1.353,1.047,1.353c0.35,0,0.633-0.174,0.873-0.349l0.742,1.178
			c-0.546,0.48-1.266,0.677-1.833,0.677c-1.55,0-2.749-1.047-2.749-2.858S86.056,197.097,87.605,197.097z"/>
		<path fill="#FFFFFF" d="M95.918,201.177h-1.985l-0.349,1.506h-1.921l2.16-7.092h2.27l2.16,7.092h-1.985L95.918,201.177z
			 M95.58,199.726l-0.12-0.49c-0.175-0.677-0.349-1.539-0.523-2.248h-0.044c-0.152,0.721-0.327,1.571-0.502,2.248l-0.12,0.49H95.58z
			"/>
		<path fill="#FFFFFF" d="M100.763,197.097c0.59,0,0.938,0.218,1.266,0.546l-0.065-0.786v-1.768h1.877v7.594h-1.527l-0.131-0.502
			h-0.044c-0.371,0.371-0.895,0.633-1.375,0.633c-1.353,0-2.226-1.091-2.226-2.858C98.537,198.166,99.65,197.097,100.763,197.097z
			 M101.265,201.286c0.284,0,0.502-0.087,0.698-0.393v-2.008c-0.218-0.196-0.502-0.262-0.742-0.262c-0.393,0-0.764,0.35-0.764,1.31
			C100.457,200.915,100.763,201.286,101.265,201.286z"/>
		<path fill="#FFFFFF" d="M104.604,197.228h1.877l0.589,2.379c0.131,0.545,0.262,1.112,0.393,1.701h0.044
			c0.131-0.589,0.262-1.156,0.393-1.701l0.589-2.379h1.789l-1.724,5.455h-2.16L104.604,197.228z"/>
		<path fill="#FFFFFF" d="M113.278,197.097c1.614,0,2.378,1.179,2.378,2.641c0,0.327-0.043,0.61-0.076,0.741h-3.109
			c0.175,0.698,0.654,0.917,1.266,0.917c0.371,0,0.72-0.109,1.113-0.327l0.61,1.112c-0.589,0.415-1.375,0.633-1.985,0.633
			c-1.593,0-2.814-1.047-2.814-2.858C110.66,198.188,111.947,197.097,113.278,197.097z M114.063,199.344
			c0-0.458-0.175-0.829-0.742-0.829c-0.414,0-0.764,0.229-0.872,0.829H114.063z"/>
		<path fill="#FFFFFF" d="M116.683,197.228h1.527l0.131,0.654h0.044c0.437-0.414,0.981-0.785,1.724-0.785
			c1.2,0,1.702,0.873,1.702,2.226v3.36h-1.877v-3.12c0-0.698-0.175-0.873-0.545-0.873c-0.35,0-0.546,0.153-0.829,0.415v3.578h-1.877
			V197.228z"/>
		<path fill="#FFFFFF" d="M123.273,198.689h-0.721v-1.396l0.829-0.065l0.219-1.418h1.549v1.418h1.244v1.462h-1.244v1.865
			c0,0.601,0.306,0.797,0.655,0.797c0.174,0,0.349-0.044,0.479-0.087l0.284,1.353c-0.284,0.087-0.688,0.196-1.288,0.196
			c-1.418,0-2.007-0.895-2.007-2.226V198.689z"/>
		<path fill="#FFFFFF" d="M127.354,197.228h1.877v3.12c0,0.698,0.175,0.873,0.545,0.873c0.35,0,0.546-0.131,0.786-0.48v-3.513h1.876
			v5.455h-1.527l-0.131-0.72h-0.043c-0.437,0.523-0.938,0.851-1.681,0.851c-1.2,0-1.702-0.873-1.702-2.226V197.228z"/>
		<path fill="#FFFFFF" d="M133.704,197.228h1.527l0.131,0.938h0.044c0.403-0.742,1.015-1.069,1.549-1.069
			c0.339,0,0.523,0.044,0.677,0.109l-0.306,1.614c-0.196-0.044-0.371-0.087-0.611-0.087c-0.393,0-0.872,0.24-1.134,0.916v3.033
			h-1.877V197.228z"/>
		<path fill="#FFFFFF" d="M140.49,197.097c1.614,0,2.378,1.179,2.378,2.641c0,0.327-0.043,0.61-0.076,0.741h-3.109
			c0.175,0.698,0.654,0.917,1.266,0.917c0.371,0,0.72-0.109,1.112-0.327l0.611,1.112c-0.589,0.415-1.375,0.633-1.985,0.633
			c-1.593,0-2.815-1.047-2.815-2.858C137.871,198.188,139.159,197.097,140.49,197.097z M141.275,199.344
			c0-0.458-0.175-0.829-0.742-0.829c-0.414,0-0.764,0.229-0.872,0.829H141.275z"/>
		<path fill="#FFFFFF" d="M144.287,200.894c0.502,0.371,0.949,0.545,1.331,0.545c0.393,0,0.546-0.108,0.546-0.327
			c0-0.283-0.502-0.414-1.048-0.633c-0.633-0.251-1.374-0.72-1.374-1.614c0-1.069,0.872-1.768,2.16-1.768
			c0.895,0,1.527,0.36,2.007,0.72l-0.829,1.113c-0.393-0.284-0.774-0.458-1.112-0.458c-0.316,0-0.48,0.087-0.48,0.305
			c0,0.284,0.48,0.394,1.025,0.59c0.655,0.24,1.396,0.654,1.396,1.637c0,1.025-0.808,1.811-2.335,1.811
			c-0.698,0-1.549-0.306-2.116-0.764L144.287,200.894z"/>
	</g>
	<g>
		<path fill="#FFFFFF" d="M28.646,384.485h1.549c0.944,0,1.673,0.257,1.673,1.124c0,0.403-0.236,0.841-0.764,0.979v0.027
			c0.646,0.118,0.986,0.458,0.986,1.062c0,0.924-0.778,1.333-1.764,1.333h-1.681V384.485z M30.146,386.311
			c0.5,0,0.722-0.215,0.722-0.555c0-0.341-0.235-0.479-0.708-0.479h-0.485v1.034H30.146z M30.242,388.221
			c0.556,0,0.848-0.209,0.848-0.618c0-0.396-0.285-0.569-0.848-0.569h-0.568v1.188H30.242z"/>
		<path fill="#FFFFFF" d="M33.533,384.485h2.84v0.86h-1.812v0.91h1.542v0.854h-1.542v1.041h1.882v0.861h-2.909V384.485z"/>
		<path fill="#FFFFFF" d="M38.019,384.485h1.049l1.18,2.249l0.452,1h0.027c-0.049-0.479-0.132-1.118-0.132-1.652v-1.597h0.972v4.526
			h-1.048l-1.181-2.257l-0.444-0.985h-0.027c0.048,0.5,0.132,1.104,0.132,1.639v1.604h-0.979V384.485z"/>
		<path fill="#FFFFFF" d="M43.324,384.485h2.84v0.86h-1.812v0.91h1.542v0.854h-1.542v1.041h1.882v0.861h-2.909V384.485z"/>
		<path fill="#FFFFFF" d="M47.81,384.485h1.277c1.389,0,2.277,0.688,2.277,2.242c0,1.556-0.889,2.284-2.215,2.284h-1.34V384.485z
			 M49.032,388.186c0.764,0,1.284-0.375,1.284-1.458s-0.521-1.416-1.284-1.416h-0.194v2.874H49.032z"/>
		<path fill="#FFFFFF" d="M52.905,384.485h1.028v4.526h-1.028V384.485z"/>
		<path fill="#FFFFFF" d="M55.683,384.485h1.028v1.854h0.021l1.354-1.854h1.118l-1.368,1.805l1.625,2.722h-1.125l-1.097-1.909
			l-0.527,0.694v1.215h-1.028V384.485z"/>
		<path fill="#FFFFFF" d="M61.342,385.346h-1.249v-0.86h3.513v0.86h-1.243v3.666h-1.021V385.346z"/>
		<path fill="#FFFFFF" d="M67.126,384.485h1.028v3.665h1.784v0.861h-2.812V384.485z"/>
		<path fill="#FFFFFF" d="M71.402,384.485h2.84v0.86H72.43v0.91h1.542v0.854H72.43v1.041h1.882v0.861h-2.909V384.485z"/>
		<path fill="#FFFFFF" d="M75.888,384.485h1.028v1.742h1.562v-1.742h1.021v4.526h-1.021v-1.889h-1.562v1.889h-1.028V384.485z"/>
		<path fill="#FFFFFF" d="M81.241,384.485h1.049l1.18,2.249l0.452,1h0.027c-0.049-0.479-0.132-1.118-0.132-1.652v-1.597h0.972v4.526
			h-1.048l-1.181-2.257l-0.444-0.985h-0.027c0.048,0.5,0.132,1.104,0.132,1.639v1.604h-0.979V384.485z"/>
		<path fill="#FFFFFF" d="M86.546,384.485h2.84v0.86h-1.812v0.91h1.541v0.854h-1.541v1.041h1.881v0.861h-2.909V384.485z"/>
		<path fill="#FFFFFF" d="M93.482,389.012l-0.868-1.632h-0.556v1.632h-1.027v-4.526h1.632c0.958,0,1.75,0.333,1.75,1.409
			c0,0.666-0.327,1.09-0.806,1.305l1.021,1.812H93.482z M92.059,386.567h0.521c0.534,0,0.826-0.229,0.826-0.673
			s-0.292-0.598-0.826-0.598h-0.521V386.567z"/>
		<path fill="#FFFFFF" d="M96.746,385.346h-1.249v-0.86h3.513v0.86h-1.243v3.666h-1.021V385.346z"/>
	</g>
</g>
</svg>
